<?xml version="1.0" encoding="utf-8"?>
<!-- Generator: Adobe Illustrator 26.5.0, SVG Export Plug-In . SVG Version: 6.00 Build 0)  -->
<svg version="1.1" id="Livello_1" xmlns="http://www.w3.org/2000/svg" xmlns:xlink="http://www.w3.org/1999/xlink" x="0px" y="0px"
     viewBox="20 0 590.53 350.71" style="enable-background:new 0 0 590.53 355.71;" xml:space="preserve">
<style type="text/css">
	.st0{fill:#FFFFFF;}
</style>
    <g>
	<g>
		<path class="st0" d="M186.59,239.38c-0.32-4.88-0.95-9.74-1.54-14.59c-0.26-2.19-0.76-4.36-1.83-6.33
			c-2.15-3.94-5.3-6.55-9.92-6.95c-1.94-0.17-3.88-0.34-5.82-0.5c-0.08,0.16-0.17,0.32-0.29,0.48c-0.66,0.91-1.42,1.59-2.26,2.08
			c1.8,0.09,3.61,0.18,5.41,0.27c0.96,0.05,1.9,0.27,2.86,0.33c3.45,0.21,5.59,2.28,7.18,5.08c1.11,1.95,1.59,4.12,1.81,6.32
			c0.43,4.3,0.8,8.6,1.18,12.9c0.07,0.76,0.09,1.54,0.04,2.3c-0.17,2.36-1.16,4.19-3.37,5.3c-3.27,1.64-6.62,3.05-10.2,3.84
			c-4.14,0.91-8.3,1.45-12.56,1.32c-3.55-0.11-7.1-0.15-10.65-0.09c-6.04,0.1-12.08,0.31-18.12,0.47c-2.97,0.08-5.95,0.16-9.76,0.25
			c-4.63-0.18-10.1-0.47-15.56-0.58c-6.04-0.12-12.09-0.08-18.13-0.11c-1.82-0.01-3.65,0.03-5.47,0.01
			c-6.51-0.07-12.74-1.43-18.66-4.18c-0.61-0.28-1.19-0.61-1.8-0.89c-2.48-1.14-3.42-3.23-3.56-5.79c-0.04-0.76,0.04-1.53,0.11-2.3
			c0.33-3.73,0.61-7.46,1.04-11.17c0.22-1.9,0.61-3.79,1.1-5.63c0.5-1.88,1.59-3.47,3-4.83c1.21-1.17,2.6-1.95,4.3-2.13
			c1.24-0.13,2.47-0.35,3.72-0.44c0.64-0.05,1.29-0.09,1.93-0.14c-0.82-0.57-1.24-1.55-1.23-2.53c-1.17,0.09-2.33,0.19-3.5,0.3
			c-2.88,0.26-5.36,1.29-7.46,3.32c-1.76,1.71-3.08,3.7-3.69,6.07c-0.48,1.85-0.87,3.74-1.11,5.63c-0.43,3.33-0.72,6.68-1.05,10.02
			c-0.11,1.15-0.26,2.3-0.25,3.44c0.02,3.45,1.08,6.41,4.13,8.38c0.32,0.21,0.6,0.47,0.87,0.69c1.04,5.72,1.15,11.18,1.06,16.66
			c-0.03,2.01,0.02,4.03,0.18,6.04c0.64,7.94,1.33,15.87,2.01,23.8c0.38,4.49,0.71,8.99,1.19,13.47c0.39,3.63,1.15,7.2,2.71,10.55
			c1.69,3.64,3.93,6.85,7.41,8.96c4.13,2.5,8.54,4.38,13.35,5.09c3.41,0.5,6.84,0.93,10.27,1.32c4.59,0.52,9.18,0.5,13.79,0.07
			c5.16-0.48,10.33-0.81,15.52-0.33c2.58,0.24,5.16,0.44,7.75,0.57c6.65,0.34,13.22-0.42,19.78-1.39c4.61-0.68,8.9-2.25,13-4.42
			c1.89-1,3.55-2.25,4.99-3.83c3.27-3.59,5.04-7.88,6-12.56c1.06-5.19,1.24-10.47,1.69-15.73c0.64-7.45,1.13-14.92,1.86-22.37
			c0.33-3.35,0.46-6.69,0.46-10.05c0-1.54,0.01-3.07-0.02-4.61c-0.07-3.76,0.65-7.44,1.02-10.93c0.19-0.29,0.23-0.38,0.3-0.44
			c0.29-0.25,0.58-0.5,0.9-0.71C185.78,246.03,186.82,242.87,186.59,239.38z M64.34,289.1c-0.2-2.63-0.41-5.25-0.62-7.96
			c0.62-0.17,1.15-0.31,2.01-0.54c0.37,2.62,0.16,4.92,0.12,7.2C65.83,288.46,65.34,289.02,64.34,289.1z M174.42,294.46
			c-0.47,5.45-0.86,10.9-1.45,16.34c-0.38,3.47-1.52,6.73-3.51,9.65c-1.65,2.42-3.75,4.28-6.4,5.63c-4.24,2.17-8.69,3.56-13.4,4.1
			c-4.19,0.48-8.39,1.01-12.6,1.16c-3.34,0.12-6.69-0.31-10.04-0.51c-0.67-0.04-1.33-0.22-2-0.23c-4.69-0.01-9.38-0.31-14.07,0.39
			c-4.56,0.68-9.2,0.61-13.79,0.13c-3.81-0.4-7.61-0.98-11.4-1.58c-4.13-0.65-7.9-2.34-11.47-4.43c-2.81-1.65-4.67-4.22-6.11-7.1
			c-1.21-2.43-1.81-5.05-2.23-7.71c-0.21-1.33-0.4-2.66-0.5-4c-0.29-3.73-0.53-7.47-0.78-11.2c-0.03-0.38-0.07-0.77-0.03-1.15
			c0.09-0.88,0.58-1.35,1.68-1.3c0.25,2.07,0.53,4.15,0.76,6.23c0.25,2.29,0.46,4.58,0.69,6.87c0.29,2.88,1.64,5.25,3.5,7.48
			c0.16-0.28,0.34-0.46,0.3-0.54c-1.45-2.9-1.67-6.07-2.05-9.2c-0.43-3.52-0.87-7.04-1.3-10.57c-0.08-0.66-0.11-1.33-0.17-2.12
			c0.43-0.44,0.87-0.94,1.35-1.38c3.62-3.29,7.25-6.58,10.88-9.85c0.57-0.51,1.18-0.98,1.77-1.47c1.46-1.22,3-1.22,4.49-0.13
			c1.31,0.96,2.67,1.92,3.73,3.12c3.69,4.16,7.38,8.33,10.66,12.84c0.28,0.38,0.59,0.76,0.94,1.08c0.86,0.76,2,0.84,2.91,0.17
			c0.53-0.4,1.01-0.89,1.41-1.42c1.81-2.36,3.59-4.74,5.36-7.13c1.72-2.31,3.39-4.65,5.14-6.94c0.81-1.05,1.75-2,2.75-3.14
			c1.33,1.2,2.39,2.4,3.33,3.69c2.21,3.02,4.39,6.06,6.61,9.07c1.08,1.47,2.22,2.89,3.35,4.32c0.3,0.38,0.61,0.75,0.95,1.07
			c1.36,1.29,2.77,1.26,3.97-0.19c1.53-1.85,2.92-3.8,4.45-5.65c2.33-2.8,4.66-5.61,7.12-8.29c1.02-1.11,2.36-1.94,3.63-2.8
			c1.35-0.91,2.72-0.79,3.99,0.23c0.45,0.36,0.93,0.69,1.35,1.07c4.13,3.73,8.25,7.47,12.37,11.21c0.14,0.12,0.22,0.3,0.48,0.67
			c-0.27,1.89-0.59,3.97-0.84,6.05c-0.42,3.43-0.78,6.86-1.18,10.29c-0.24,2.11-0.76,4.13-2.22,5.78l-0.04-0.01
			c0.46,0.18,0.89,0.28,1.27-0.2c1.71-2.14,2.95-4.46,3.21-7.25c0.35-3.72,0.78-7.44,1.18-11.16c0.06-0.55,0.17-1.1,0.27-1.7
			c0.39,0,0.76-0.11,0.9,0.02c0.33,0.31,0.57,0.72,0.79,1.11C174.5,294.04,174.44,294.27,174.42,294.46z M174.71,288.99
			c-1-0.04-1.54-0.58-1.55-1.35c-0.05-2.18-0.27-4.38,0.1-6.94c0.83,0.14,1.36,0.23,2.08,0.36
			C175.12,283.75,174.92,286.31,174.71,288.99z M176.29,272.85c-1.1-0.13-2.02-0.23-2.88-0.33c-0.26-0.53-0.46-0.95-0.77-1.6
			c-0.16,1.33-0.33,2.38-1.24,3.28c-1.3,1.29-1.49,3-0.32,4.44c0.92,1.13,0.93,2.27,0.8,3.51c-0.12,1.2,0.17,2.48-0.66,3.73
			c-0.52-0.4-0.99-0.71-1.39-1.08c-2.67-2.48-5.31-5-8-7.46c-1.06-0.97-2.19-1.87-3.37-2.68c-2.36-1.62-4.88-1.6-7.37-0.33
			c-2.15,1.1-4.05,2.56-5.59,4.45c-2.85,3.49-5.72,6.96-8.59,10.44c-0.36,0.43-0.74,0.85-1.41,1.63c-1.02-1.36-1.81-2.42-2.61-3.48
			c-2.53-3.38-5.03-6.77-7.58-10.13c-0.64-0.84-1.39-1.59-2.12-2.35c-0.84-0.88-1.81-1.42-3.09-1c-0.26,0.09-0.6,0.18-0.83,0.09
			c-1.8-0.71-2.93,0.31-3.98,1.5c-3.18,3.6-6.09,7.41-8.79,11.37c-0.86,1.26-1.78,2.48-2.8,3.88c-0.52-0.47-1-0.76-1.3-1.18
			c-2.75-3.82-5.89-7.32-8.93-10.9c-1.52-1.79-3.33-3.19-5.38-4.27c-2.57-1.36-5.17-1.36-7.62,0.35c-1.02,0.71-2.01,1.48-2.93,2.32
			c-2.83,2.59-5.61,5.24-8.42,7.85c-0.39,0.37-0.85,0.67-1.42,1.11c-0.62-1.89-0.6-3.62-0.61-5.33c0-0.52,0.31-1.08,0.59-1.55
			c1.37-2.36,1.44-3.23-0.21-5.16c-0.74-0.87-0.97-1.81-1.19-3.17c-0.26,0.72-0.4,1.11-0.59,1.61c-0.77,0.15-1.6,0.31-2.42,0.46
			c-0.14-0.18-0.34-0.31-0.36-0.48c-0.58-4.12-0.59-8.22,0.84-12.19c0.84-2.33,2.21-4.25,4.49-5.39c1.66-0.83,3.32-1.24,5.24-0.83
			c3.3,0.7,6.69,0.67,10.04,0.49c8.25-0.45,16.49-0.26,24.74,0.08c3.26,0.14,6.52,0.29,9.78,0.42c0.96,0.04,1.92,0.04,2.88,0
			c3.26-0.13,6.52-0.27,9.78-0.42c8.25-0.36,16.49-0.5,24.74-0.09c3.63,0.18,7.25-0.03,10.89-0.58c3.3-0.49,5.96,1.21,7.76,3.96
			c0.77,1.18,1.32,2.57,1.7,3.94C176.8,265.36,176.43,269,176.29,272.85z"/>
        <path class="st0" d="M119.39,295.83c-2.22-0.08-4.04-1.93-4-4.08c0.03-2.24,2.12-4.12,4.41-3.96c2.22,0.15,3.94,2.05,3.84,4.22
			C123.53,294.17,121.6,295.91,119.39,295.83z"/>
        <path class="st0" d="M155.69,293.29c-2.16-0.05-3.96-1.94-3.89-4.09c0.06-2.1,2.08-3.96,4.18-3.84c2.13,0.12,4.27,2.35,4.16,4.34
			C160.03,291.62,157.89,293.34,155.69,293.29z"/>
        <path class="st0" d="M87.21,289.19c0.06,2.26-1.66,4.06-3.91,4.1c-2.28,0.04-4.34-1.72-4.34-3.72c0-2.13,2.16-4.24,4.32-4.21
			C85.38,285.4,87.16,287.13,87.21,289.19z"/>
        <path class="st0" d="M147.74,326.93c-2.5,0.97-3.49,0.97-12,0.06C139.63,326.54,145.19,326.52,147.74,326.93z"/>
        <path class="st0" d="M103.29,326.88c-6.86,1.01-9.31,1.02-12.08-0.02C95.48,326.37,99.38,326.83,103.29,326.88z"/>
        <path class="st0" d="M81.58,325.11c0.35-0.02,0.63-0.1,0.89-0.05c0.63,0.13,1.24,0.33,2,0.54
			C83.28,325.94,83.28,325.94,81.58,325.11z"/>
        <path class="st0" d="M153.97,325.7c1.48-0.34,2.35-0.55,3.22-0.75C156.44,325.67,155.66,326.2,153.97,325.7z"/>
        <path class="st0" d="M166.79,313.05c0.13,0.13,0.31,0.25,0.37,0.41c0.03,0.09-0.13,0.26-0.2,0.39c-0.03-0.07-0.08-0.15-0.09-0.22
			c-0.01-0.18-0.01-0.36-0.02-0.55C166.83,313.06,166.79,313.05,166.79,313.05z"/>
        <path class="st0" d="M168.79,217.27c-1.77-1.62-3.91-2.35-6.32-2.16c-0.18,0.02-0.34,0.39-0.6,0.71c1.63,1.39,4.07,1.3,5.48,3.06
			c-0.59,1.03-1.42,1.33-2.46,1.62c-0.54-1.78-1.91-2.44-3.33-3.09c-0.9-0.41-1.81-0.74-2.74-1c-0.27,0.78-0.91,1.43-1.99,1.67
			c-6.06,1.34-12.22,1-18.38,0.79c-6.47-0.22-12.94,0.12-19.41,0.38c-12.45,0.5-24.65,0.41-36.56-3.36
			c-0.29,0.04-0.59,0.09-0.87,0.17c-2.93,0.81-5.97,1.43-7.69,4.41c-0.93-0.39-1.9-0.57-2.16-1.7c1.5-1.58,3.76-1.59,5.77-3.24
			c-0.83-0.26-1.26-0.53-1.67-0.5c-1.55,0.09-3.03,0.52-4.37,1.3c-0.57,0.33-1.09,0.8-1.51,1.3c-0.82,0.96-0.79,1.92,0.09,2.83
			c1.22,1.25,2.63,2.26,4.35,2.68c1.39,0.34,2.81,0.72,4.23,0.82c6.69,0.47,13.39,1.19,20.09,1.2c17.55,0.04,35.11,0.53,52.66-0.49
			c3.83-0.22,7.64-0.67,11.45-1.09c2.26-0.25,4.21-1.26,5.87-2.82C169.91,219.6,169.99,218.37,168.79,217.27z"/>
        <path class="st0" d="M61.03,222.8c-0.12,0.94-0.27,1.87-0.36,2.81c-0.21,2.28-0.35,4.57-0.61,6.85c-0.09,0.82-0.42,1.62-0.9,2.39
			c0-2.34-0.04-4.69,0.01-7.03c0.04-1.62,0.15-3.25,0.89-4.74c0.21-0.42,0.53-0.48,0.92-0.25L61.03,222.8z"/>
        <path class="st0" d="M178.02,222.14c0.28,0.2,0.73,0.34,0.8,0.6c0.39,1.37,0.9,2.75,0.98,4.16c0.15,2.67,0.04,5.36,0.04,8.62
			c-0.77-2.02-0.98-3.56-1.12-5.13c-0.23-2.76-0.52-5.52-0.78-8.27L178.02,222.14z"/>
        <path class="st0" d="M88.35,227.39c2.84-0.65,7.29-0.49,10,0.34C93.06,228.34,89.82,228.22,88.35,227.39z"/>
        <path class="st0" d="M140.5,227.98c3.4-1.36,6.9-0.9,10.4-0.91c-0.03,0.91-0.56,0.89-1,0.9
			C146.76,227.98,143.63,227.98,140.5,227.98z"/>
        <path class="st0" d="M102.86,247.86c-2.78,0.42-5.55,0.65-8.68,0.25C97.29,247.26,99.92,247.15,102.86,247.86z"/>
        <path class="st0" d="M144.38,248.23c-2,0-4,0.02-5.99-0.01c-0.63-0.01-1.26-0.14-2.17-0.24
			C138.22,247.13,141.26,247.17,144.38,248.23z"/>
        <path class="st0" d="M124.09,248.2c-1.69,0.04-3.39,0.11-5.08,0.11c-1.39,0-2.79-0.08-4.18-0.51c1.7,0,3.39-0.01,5.09,0
			c1.39,0.02,2.78,0.07,4.17,0.11C124.09,248.01,124.09,248.11,124.09,248.2z"/>
        <path class="st0" d="M116.64,227.8c1.98-0.51,3.96-0.38,5.95-0.11C120.62,228.1,118.63,227.88,116.64,227.8z"/>
        <path class="st0" d="M173.48,216.72c2.21-0.29,2.22-0.29,3.37,2.18c-0.8-0.05-1.07-0.76-1.59-1.07
			C174.78,217.54,174.31,217.24,173.48,216.72z"/>
        <path class="st0" d="M61.52,219.22c0.43-0.6,0.81-1.25,1.32-1.77c0.44-0.44,1.03-0.76,1.6-1.05c0.14-0.07,0.45,0.2,0.86,0.4
			c-0.63,0.44-1.15,0.76-1.63,1.14c-0.44,0.35-0.82,0.78-1.28,1.11c-0.2,0.14-0.53,0.1-0.79,0.14L61.52,219.22z"/>
        <path class="st0" d="M61.6,219.18c-0.01,0.14-0.03,0.28-0.04,0.42c0.08-0.02,0.15-0.04,0.23-0.05c-0.08-0.11-0.17-0.22-0.25-0.33
			C61.52,219.22,61.6,219.18,61.6,219.18z"/>
        <path class="st0" d="M177.95,222.11c0.04-0.13,0.09-0.26,0.13-0.39c-0.05,0.06-0.14,0.12-0.15,0.18c0,0.08,0.06,0.16,0.1,0.24
			C178.02,222.14,177.95,222.11,177.95,222.11z"/>
        <path class="st0" d="M61,222.82c-0.02-0.16-0.05-0.32-0.07-0.48c0.03,0.15,0.06,0.31,0.1,0.46C61.03,222.8,61,222.82,61,222.82z"
        />
        <path class="st0" d="M101.3,280.57c-2.75-0.09-4.38-2.89-3.12-5.34c1.11-2.16,3.25-3.09,5.21-2.27c1.85,0.78,2.7,2.5,2.19,4.42
			C105.09,279.21,103.18,280.63,101.3,280.57z"/>
        <path class="st0" d="M137.63,280.57c-2.21,0.01-4.26-1.96-4.32-4.14c-0.05-2.05,1.74-3.84,3.84-3.81
			c2.05,0.02,4.16,2.23,4.18,4.36C141.34,278.92,139.65,280.56,137.63,280.57z"/>
        <path class="st0" d="M171.65,263.79c0.24,0.47,0.47,0.94,0.75,1.48c-0.6,0.19-0.57-0.32-0.74-0.49c-0.17-0.18-0.22-0.47-0.33-0.71
			C171.44,263.98,171.54,263.88,171.65,263.79z"/>
        <path class="st0" d="M67.23,265.21c-0.17,0.1-0.34,0.2-0.5,0.3c0.03-0.07,0.04-0.19,0.08-0.2c0.16-0.03,0.32-0.03,0.48-0.04
			L67.23,265.21z"/>
        <path class="st0" d="M67.29,265.27c-0.06-0.17-0.16-0.34-0.17-0.52c-0.01-0.14,0.1-0.29,0.15-0.43c0.06,0.13,0.19,0.26,0.18,0.37
			c-0.03,0.17-0.16,0.33-0.23,0.5C67.23,265.21,67.29,265.27,67.29,265.27z"/>
	</g>
        <g>
		<path class="st0" d="M109.26,220.3c0.04,0.52,0.08,1.05,0.13,1.57c0.14,1.58,0.15,1.58-0.85,3.13c-1.29-0.19-2.56-0.16-3.66,0.74
			c-0.39,0.32-0.97,0.48-1.28,0.18c-0.58-0.57-1.08,0.11-1.73-0.11c-0.71-2.21-1.73-4.38-1.69-6.91c0.13-7.74,1.22-15.32,3.27-22.78
			c1.54-5.61,3.83-10.91,6.2-16.19c1.78-3.96,3.6-7.9,5.42-11.84c1.58-3.41,3.49-6.63,5.57-9.76c4.62-6.96,9.23-13.93,13.8-20.92
			c4.26-6.53,7.58-13.53,10.07-20.92c1.35-4.01,2.19-8.15,2.22-12.38c0.04-6.96,1.19-13.74,2.9-20.46
			c1.17-4.59,2.41-9.16,4.29-13.52c0.07-0.17,0.09-0.35,0.19-0.79c-0.53,0.37-0.91,0.57-1.22,0.85c-4.08,3.55-7.85,7.4-11.08,11.75
			c-3.26,4.39-6.23,8.98-8.53,13.95c-3.3,7.13-7.29,13.85-11.76,20.29c-3.07,4.43-6.02,8.96-9.49,13.1
			c-3.21,3.84-6.41,7.68-9.62,11.51c-0.08,0.1-0.17,0.2-0.26,0.3c-6.78,7.35-11.24,15.99-14.15,25.49c-0.85,2.77-1.6,5.56-2.02,8.43
			c-0.49,3.34-0.42,6.7-0.19,10.05c0.28,4.07,0.6,8.14,1.01,12.19c0.21,2.09,0.55,4.18,1.03,6.22c0.95,4.1,2.25,8.1,3.87,12
			c1.11,2.67,2.14,5.38,3.16,8.08c0.29,0.77,0.74,1.55,0.3,2.56c-1.59-0.44-2.43-1.71-3.36-2.83c-1.22,0.68-1.33,0.74-2.37,0.22
			c-0.88-0.44-1.74-0.95-2.5-1.56c-4.74-3.87-9.53-7.68-14.13-11.7c-2.47-2.16-4.69-4.62-6.84-7.1c-3.79-4.37-7.46-8.85-11.16-13.31
			c-0.8-0.96-1.5-2-2.26-2.99c-4.04-5.34-6.51-11.37-8.02-17.86c-1.66-7.13-2.67-14.34-3.25-21.63c-0.57-7.29-0.8-14.58-0.7-21.89
			c0.01-0.65,0.05-1.3,0.27-1.98c0.06,0.4,0.16,0.79,0.19,1.19c0.42,5.25,0.75,10.5,1.25,15.74c1.08,11.23,3.38,22.22,6.77,32.98
			c1.08,3.41,2.55,6.64,4.64,9.54c2.2,3.04,4.43,6.06,6.81,8.95c3.52,4.26,7.18,8.4,10.8,12.58c0.42,0.49,0.9,0.92,1.54,1.57
			c0.05-0.57,0.18-0.89,0.09-1.14c-0.16-0.42-0.43-0.81-0.68-1.19c-0.94-1.5-1.9-3-2.84-4.51c-6.05-9.61-10.19-20.01-12.99-30.98
			c-0.95-3.71-1.39-7.49-1.67-11.3c-0.48-6.58-0.32-13.15-0.12-19.73c0.17-5.67-0.13-11.31-1.39-16.87c-0.66-2.9-1.65-5.68-2.84-8.4
			c-0.91-2.06-2.14-3.93-3.68-5.57c-1.8-1.92-3.63-3.81-5.51-5.66c-4.09-4.04-7.71-8.44-10.84-13.27c-1.21-1.88-2.59-3.64-3.91-5.45
			c-0.14-0.19-0.36-0.31-0.67-0.57c-0.39,0.81-0.36,1.53-0.29,2.22c0.21,2.03,0.42,4.06,0.72,6.07c0.95,6.38,2.52,12.63,4.21,18.86
			c1.29,4.77,2.1,9.63,2.77,14.52c0.74,5.43,0.95,10.86,0.91,16.33c-0.04,5.79,0.29,11.57,1.39,17.28
			c1.69,8.81,4.81,17.07,9.55,24.7c0.16,0.26,0.45,0.44,0.67,0.66l-0.05-0.05c0.2,0.47,0.35,0.98,0.61,1.42
			c1.83,3.05,3.9,5.94,6.25,8.62c6.38,7.28,13.11,14.22,20.62,20.35c4.13,3.37,8.22,6.78,12.74,9.63c1.28,0.81,2.44,1.76,3.14,3.12
			c-0.24,0.48-0.61,0.35-0.88,0.28c-0.76-0.21-1.52-0.43-2.24-0.74c-2.91-1.25-5.68-2.75-8.25-4.61
			c-11-7.94-20.78-17.21-29.18-27.84c-8.28-10.49-13.79-22.34-16.08-35.59c-1-5.79-1.25-11.63-1.23-17.5c0.01-2.04,0-4.08,0.01-6.12
			c0-3.63-0.62-7.2-1.06-10.79c-0.77-6.22-2.38-12.25-3.93-18.3c-1.24-4.84-2.21-9.74-2.85-14.71c-0.24-1.82-0.39-3.66-0.47-5.5
			c-0.04-0.91,0.11-1.84,0.27-2.74c0.26-1.46,1.11-2.34,2.66-2.43c0.19-0.01,0.38-0.05,0.68-0.09c1.59,1.6,3.24,3.2,4.83,4.86
			c1.5,1.57,3.04,3.09,4.77,4.42c0.73,0.56,1.45,1.14,2.11,1.78c4.09,4,8.21,7.97,12.21,12.06c1.93,1.97,3.59,4.18,5.08,6.52
			c2.11,3.32,3.4,6.96,4.43,10.71c0.78,2.85,1.56,5.71,1.88,8.66c0.06,0.59,0.13,1.18,0.16,1.77c0.28,5.58,0.5,11.17,0.83,16.75
			c0.22,3.61,0.63,7.2,1.04,10.79c0.6,5.18,1.6,10.26,2.86,15.3c0.43,1.72,0.93,3.43,1.56,5.09c1.21,3.2,2.39,6.42,3.85,9.5
			c1.4,2.96,3.06,5.82,4.75,8.63c2.41,4,4.96,7.91,7.46,11.85c0.13,0.2,0.36,0.33,0.55,0.5c0.05,0.12,0.1,0.24,0.14,0.36
			c0.02-0.04,0.06-0.11,0.05-0.12c-0.07-0.08-0.15-0.14-0.23-0.21c-0.03-0.33-0.01-0.67-0.1-0.97c-0.89-2.97-1.46-6-1.83-9.08
			c-0.03-0.26-0.1-0.51-0.17-0.85c-2.79-1.6-4.74-4.07-6.45-6.75c-4.48-7.04-7.84-14.57-10.01-22.64
			c-1.86-6.9-2.17-13.87-1.45-20.93c0.27-2.62,0.72-5.22,0.87-7.84c0.2-3.48,0.19-6.96,0.26-10.45c0.03-1.64,0.01-3.29,0.09-4.93
			c0.04-0.94-0.09-1.8-0.38-2.7c-1.78-5.33-2.93-10.79-2.99-16.43c-0.05-4.4,0.11-8.81,0.17-13.22c0.01-0.85,0-1.7,0-2.55
			c-1.71-0.89-3.35-1.72-4.95-2.59c-1.21-0.66-2.45-1.3-3.56-2.11c-6.44-4.71-11.99-10.25-15.99-17.22
			c-0.82-1.43-1.66-2.84-2.49-4.26c-1.95-3.34-3.02-6.98-3.61-10.78c-0.44-2.87-0.56-5.76-0.62-8.65
			c-0.07-3.42-0.06-6.84-0.06-10.26c0-0.72,0.05-1.45,0.2-2.15c0.3-1.37,1.17-1.98,2.59-1.83c1.26,0.14,2.44,0.54,3.49,1.27
			c0.65,0.45,1.27,0.94,1.86,1.47c2.15,1.93,4.26,3.91,6.44,5.82c1.73,1.52,3.52,2.95,5.3,4.42c4.46,3.7,9.22,6.99,13.98,10.29
			c0.54,0.37,1.06,0.78,1.55,1.22c3.83,3.52,7.57,7.12,10.66,11.33c1.98,2.7,4.12,5.3,5.72,8.27c0.08,0.15,0.26,0.24,0.41,0.36
			c0.41-0.43,0.23-0.91,0.21-1.33c-0.27-5.94,0.77-11.67,2.8-17.22c2.74-7.49,4.58-15.23,6.26-23c0.38-1.74,0.86-3.45,1.65-5.05
			c0.32-0.64,0.69-1.28,1.14-1.84c1.01-1.26,2.4-1.36,3.61-0.28c0.39,0.35,0.73,0.76,1.03,1.19c1.49,2.17,2.81,4.43,3.81,6.89
			c0.94,2.31,2.06,4.55,3.15,6.79c0.37,0.76,0.92,1.44,1.4,2.14c0.7,1.03,1.4,2.06,2.12,3.09c0.1,0.15,0.27,0.24,0.51,0.46
			c0.14-0.38,0.27-0.66,0.35-0.95c1.06-3.74,1.85-7.52,2.26-11.4c0.44-4.19,0.74-8.38,0.81-12.6c0.01-0.79,0.12-1.57,0.2-2.36
			c0.04-0.32,0.09-0.66,0.2-0.96c0.51-1.46,1.82-1.93,3.16-1.15c0.93,0.54,1.66,1.31,2.21,2.22c0.99,1.63,2,3.25,2.81,4.97
			c2.98,6.3,5.87,12.64,8.81,18.96c0.58,1.25,1.18,2.5,1.86,3.7c2.27,4.02,3.99,8.29,5.56,12.62c0.13,0.37,0.3,0.72,0.47,1.07
			c0.02,0.04,0.12,0.06,0.24,0.11c0.27-1.43,0.53-2.84,0.79-4.25c0.76-4.05,2.17-7.85,4.22-11.41c1.18-2.05,2.45-4.05,3.7-6.06
			c1.44-2.29,3.16-4.36,5.09-6.26c1.96-1.94,3.82-3.99,5.77-5.94c2.19-2.18,4.38-4.37,6.68-6.42c1.27-1.13,2.74-2.03,4.18-2.96
			c0.65-0.42,1.41-0.71,2.16-0.94c1.15-0.35,2.12,0.23,2.39,1.41c0.11,0.5,0.13,1.05,0.04,1.55c-0.17,0.9-0.42,1.79-0.71,2.66
			c-1.88,5.55-3.43,11.19-4.67,16.91c-0.61,2.82-0.94,5.7-1.41,8.56c-0.2,1.23-0.46,2.46-0.65,3.69c-0.11,0.71-0.16,1.43-0.24,2.15
			c-0.02,0.1-0.05,0.19-0.07,0.29c0.01-0.11,0.02-0.21,0.03-0.32c0.61-0.27,0.69-0.9,0.93-1.41c1.42-2.98,3.07-5.81,5.03-8.46
			c0.93-1.26,1.99-2.44,3.06-3.6c0.43-0.47,1-0.85,1.57-1.16c0.95-0.51,1.81-0.28,2.38,0.64c0.34,0.55,0.64,1.17,0.76,1.8
			c0.37,1.93,0.83,3.87,0.92,5.83c0.18,4.13,0.14,8.28,0.2,12.42c0.04,2.96,0,5.92,0.16,8.87c0.31,5.72,1.36,11.34,2.6,16.92
			c0.67,3.01,1.4,6.02,1.94,9.05c0.96,5.39,1.3,10.84,0.98,16.3c-0.17,2.88-0.7,5.74-1.18,8.58c-0.69,4.08-1.41,8.15-2.24,12.21
			c-1.18,5.81-3.1,11.4-5.23,16.92c-0.18,0.48-0.25,1-0.38,1.5c-0.09,0.05-0.17,0.09-0.26,0.14c0.06,0.05,0.13,0.1,0.19,0.14
			c0.02-0.1,0.04-0.2,0.06-0.3c0.3-0.22,0.66-0.41,0.91-0.68c5.13-5.65,10.23-11.32,15.37-16.96c3.34-3.66,6.24-7.63,8.63-11.97
			c0.35-0.63,0.74-1.24,1.07-1.89c2.57-5.06,6.22-9.26,10.37-13.06c3.11-2.85,6.51-5.34,9.87-7.86c0.31-0.23,0.66-0.44,1.02-0.57
			c0.91-0.32,1.75,0.3,1.75,1.27c0,0.26-0.04,0.52-0.09,0.78c-0.04,0.19-0.11,0.38-0.18,0.56c-3.29,9.04-5.12,18.48-7.58,27.75
			c-2.17,8.16-5.06,16.03-9.13,23.46c-3.32,6.05-6.68,12.08-10.6,17.78c-3.95,5.76-8.29,11.2-12.81,16.51
			c-5.73,6.72-10.83,13.9-15.6,21.31c-1.03,1.6-1.96,3.27-2.86,4.95c-1.01,1.87-2.36,3.48-3.76,5.05c-0.16,0.18-0.42,0.28-0.65,0.4
			c-0.05,0.03-0.13-0.01-0.33-0.04c0-0.29-0.07-0.61,0.01-0.89c0.61-2.21,0.86-4.54,2.1-6.54c0.1-0.16,0.21-0.36,0.21-0.54
			c-0.01-1.51,0.75-2.77,1.28-4.1c0.75-1.89,1.58-3.76,2.42-5.61c0.42-0.92,0.84-1.87,1.89-2.75c-0.12,1.28-0.54,2.16-0.93,3.04
			c-0.45,1.02-0.97,2.01-1.44,3.03c-0.3,0.65-0.58,1.32-0.86,1.99c-0.14,0.3-0.28,0.59-0.42,0.88c0.03,0.02,0.05,0.04,0.08,0.06
			c-0.01-0.03-0.02-0.06-0.04-0.08c0.32-0.22,0.41-0.53,0.34-0.9c0.41,0.08,0.58-0.25,0.75-0.5c0.86-1.25,1.7-2.5,2.54-3.76
			c3.66-5.55,7.62-10.89,11.87-16c6.36-7.64,12.37-15.54,17.54-24.05c3.14-5.17,6.11-10.45,8.7-15.92
			c2.45-5.17,4.37-10.57,5.91-16.09c1.84-6.58,3.6-13.19,5.44-19.77c0.48-1.71,1.09-3.37,1.64-5.06c0.1-0.31,0.14-0.63,0.21-0.95
			c0,0,0.06-0.08,0.06-0.08l-0.02,0.11c-0.29,0.12-0.63,0.17-0.87,0.36c-3.34,2.57-6.5,5.35-9.29,8.52
			c-2.27,2.58-4.26,5.34-5.83,8.41c-0.66,1.29-1.39,2.53-2.1,3.79c-2.23,3.97-4.94,7.6-7.99,10.98c-4.05,4.49-8.07,9.01-12.14,13.5
			c-4.73,5.22-9.26,10.6-13.33,16.35c-3.24,4.58-6.08,9.37-7.94,14.7c-1.83,5.23-3.09,10.59-4.09,16.03
			c-0.73,3.97-0.85,7.97-1.09,11.97c-0.15,2.43-0.3,4.86-0.45,7.28c-0.03,0.52-0.04,1.05-0.07,1.57c-0.05,0.86,0.55,1.29,1.15,1.69
			c0.29,0.19,0.89-0.08,0.98-0.41c0.05-0.19,0.1-0.38,0.09-0.58c-0.02-3.98,0.88-7.83,1.74-11.68c1.32-5.92,3.01-11.72,5.85-17.11
			c1.07-2.03,2.18-4.06,3.44-5.98c5.67-8.65,11.9-16.87,18.88-24.51c1.33-1.45,2.75-2.82,4.16-4.21c0.37-0.36,0.81-0.65,1.21-0.98
			l-0.03-0.04c0.07,0.78-0.58,1.13-0.97,1.62c-2.1,2.62-4.31,5.15-6.31,7.84c-6.83,9.22-12.82,18.96-17.7,29.35
			c-1.09,2.32-2.07,4.7-2.85,7.14c-1.87,5.89-3.42,11.88-4.6,17.95c-0.1,0.51-0.13,1.04-0.23,1.56c-0.19,0.96-0.31,1.95-1.07,2.82
			c-0.39-0.2-0.77-0.39-1.24-0.63c-1.56,1.08-3.3,0.67-5.04,0.38c0.32-1.36,0.64-2.72,0.45-4.12c-0.4-3.01-0.32-6.04-0.33-9.07
			c0-0.72,0.02-1.45,0-2.17c-0.09-3.43,0.22-6.83,0.78-10.21c0.92-5.53,2.19-10.95,4.04-16.25c1.6-4.57,3.81-8.81,6.52-12.79
			c1.18-1.74,2.43-3.44,3.67-5.14c0.43-0.6,0.71-1.2,0.82-1.96c0.2-1.36,0.55-2.69,0.91-4.35c0.61,1.36-0.29,2.38,0.02,3.4
			c0.88-0.47,1.2-0.83,1.36-1.59c0.04-0.19,0.07-0.39,0.06-0.59c-0.13-2.04,0.6-3.87,1.37-5.7c3.18-7.55,5.36-15.4,6.74-23.46
			c0.87-5.05,1.56-10.14,2.29-15.21c0.15-1.04,0.17-2.1,0.12-3.15c-0.18-3.41-0.32-6.84-0.69-10.23c-0.25-2.34-0.84-4.65-1.31-6.97
			c-0.77-3.8-1.61-7.59-2.32-11.4c-1.22-6.56-1.6-13.18-1.32-19.84c0.18-4.34,0.22-8.68-0.07-13.02c-0.07-1.11-0.27-2.21-0.44-3.55
			c-0.47,0.33-0.82,0.48-1.03,0.75c-2.09,2.56-3.84,5.34-5.33,8.28c-2.27,4.47-4.04,9.15-5.27,14c-0.96,3.8-2.49,7.33-4.43,10.72
			c-1.83,3.2-3.66,6.39-5.44,9.62c-0.8,1.44-1.54,2.91-2.21,4.41c-1.61,3.59-2.44,7.35-2.44,11.29c0.01,6.52,0.28,13.02,0.76,19.52
			c0.44,5.98,0.49,11.96-0.45,17.92c-0.32,2.01-0.6,4.03-0.84,6.05c-0.08,0.71,0.04,1.44,0.03,2.17c-0.01,0.97,0.11,1.93-0.43,2.87
			c-0.25,0.45-0.13,1.16-0.05,1.73c0.67,4.63,0.83,9.3,0.99,13.97c0.18,5.2,0.22,10.4-0.33,15.58c-0.43,3.99-0.97,7.96-1.41,11.95
			c-0.85,7.68-2.62,15.15-4.83,22.53c-0.26,0.88-0.58,1.75-0.85,2.63c-0.77,2.51-2.25,4.59-3.93,6.55c-0.2,0.23-0.49,0.39-0.86,0.68
			c-0.05-0.33-0.13-0.5-0.1-0.65c0.73-3.34,1.6-6.63,2.61-9.9c2.26-7.3,3.9-14.74,4.69-22.36c0.38-3.73,0.89-7.45,1.23-11.18
			c0.24-2.68,0.42-5.39,0.39-8.08c-0.06-5-0.2-10-0.48-14.99c-0.19-3.34-0.58-6.68-1.03-10.01c-0.74-5.54-1.59-11.06-2.42-16.59
			c-0.16-1.09-0.09-2.23-0.55-3.51c-0.28,0.41-0.48,0.63-0.61,0.89c-0.43,0.89-0.77,1.83-1.28,2.67c-0.59,0.99-0.56,1.94-0.3,3.01
			c1.19,4.88,1.76,9.83,1.45,14.87c-0.02,0.26-0.05,0.51-0.12,1.22c-0.4-2.93-0.69-5.43-1.09-7.9c-0.4-2.5-1.02-4.96-1.56-7.92
			c-0.7,1.22-1.21,1.98-1.59,2.8c-0.18,0.38-0.17,0.88-0.14,1.33c0.15,2.22,0.33,4.45,0.28,6.75c-0.14-0.29-0.37-0.57-0.39-0.86
			c-0.09-1.11-0.1-2.23-0.15-3.35c-0.04-0.69-0.01-1.41-0.45-2.06c-1.06,1.13-4.27,5.94-5.09,7.6c0.06,0.21,0.1,0.48,0.2,0.72
			c1.29,3,1.84,6.18,2.21,9.38c0.53,4.7,0.92,9.42,1.37,14.14c0,0.05-0.07,0.1-0.2,0.28c-0.14-0.25-0.31-0.43-0.36-0.64
			c-0.53-2.24-1.04-4.48-1.56-6.72c-1.09-4.74-2.18-9.48-3.26-14.19c-0.48-0.2-0.61,0.14-0.78,0.4c-1.94,2.9-3.89,5.78-5.81,8.7
			c-0.46,0.7-0.79,1.49-1.15,2.17c0.88,2.61,2.09,4.95,2.4,7.58c-1.36-1.85-1.34-4.3-2.76-6.33c-0.39,0.85-0.71,1.56-1.06,2.33
			c2.05,2.87,2.64,6.26,3.71,9.54c-0.52,0.1-0.64-0.25-0.74-0.48c-0.34-0.71-0.61-1.45-0.92-2.18c-0.72-1.68-1.41-3.39-2.51-5.13
			c-0.18,0.42-0.35,0.67-0.4,0.94c-0.16,0.84-0.28,1.68-0.43,2.64c0.53,0.88,1.09,1.84,1.69,2.79c3.59,5.69,5.98,11.84,7.09,18.48
			c0.73,4.31,0.83,8.65,0.48,12.99c-0.54,6.76-1.56,13.45-3.07,20.07c-0.24,1.06-0.4,2.16-0.97,3.15c-0.45-0.24-0.28-0.6-0.26-0.88
			c0.17-2.76,0.38-5.51,0.55-8.27c0.42-6.84,0.4-13.68-0.43-20.49c-0.27-2.22-0.48-4.45-0.81-6.66c-0.55-3.66-1.61-7.19-3.05-10.59
			c-1.36-3.2-2.85-6.34-4.34-9.63c-0.22,0.28-0.42,0.45-0.52,0.67c-0.95,2.02-1.88,4.06-2.84,6.08c-0.28,0.58-0.28,1.09-0.03,1.69
			c1.46,3.53,2.32,7.26,3.36,10.93c0.2,0.7,0.46,1.38,0.2,2.12l0.03-0.04c-0.27-0.59-0.59-1.16-0.79-1.77
			c-1.06-3.18-2.09-6.37-3.13-9.56c-0.1-0.3-0.22-0.6-0.35-0.93c-0.98,1.03-1.1,1.23-0.64,2.14c1.08,2.15,1.54,4.46,1.98,6.79
			c0.38,2,0.8,3.99,1.2,5.99c0.04,0.18,0,0.37,0,0.64c-0.78-0.58-0.83-1.42-1.05-2.15c-0.94-3.08-1.83-6.17-2.75-9.26
			c-0.09-0.29-0.24-0.56-0.44-1.02c-0.97,1.67-1.6,3.25-2.21,4.83c-0.15,0.38-0.05,0.92,0.1,1.33c2.62,7.06,4.32,14.35,5.57,21.75
			c0.69,4.08,1.15,8.2,1.69,12.31c0.08,0.65,0.07,1.32,0.02,1.97c-0.03,0.38-0.18,0.77-0.36,1.11c-0.35,0.64-1.19,0.79-1.67,0.26
			c-0.39-0.43-0.75-0.94-0.93-1.48c-0.37-1.12-0.69-2.27-0.88-3.43c-0.24-1.42-0.38-2.87-0.46-4.31c-0.35-6.7-0.96-13.38-2.05-20.01
			c-0.36-2.2-0.83-4.39-1.26-6.58c-0.06-0.32-0.2-0.62-0.34-1.02c-0.59,0.29-0.61,0.85-0.83,1.27c-0.86,1.66-0.87,3.34-0.39,5.13
			c0.72,2.67,0.98,5.43,1.26,8.18c0.03,0.25-0.02,0.51-0.05,1.13c-0.35-0.59-0.63-0.88-0.69-1.21c-0.29-1.42-0.53-2.84-0.77-4.27
			c-0.19-1.1-0.34-2.21-0.53-3.31c-0.03-0.17-0.17-0.31-0.37-0.66c-0.18,0.43-0.32,0.69-0.41,0.97c-1.19,3.64-1.92,7.38-2.42,11.16
			c-0.06,0.43,0.02,0.92,0.18,1.32c0.93,2.31,1.91,4.61,2.88,6.91c0.04,0.11,0.18,0.17,0.28,0.25l-0.04-0.05
			c0,0.58,0.02,1.16,0.42,1.65l-0.03-0.06c0.14,0.55,0.28,1.09,0.42,1.64l-0.03-0.06c0.1,0.56-0.02,1.17,0.42,1.64L109.26,220.3z
			 M87.16,217.58c0.01,0.03,0.02,0.06,0.03,0.09c0-0.03-0.01-0.07-0.01-0.1c-0.2-0.44-0.28-0.96-0.82-1.17
			c-0.14-0.43-0.21-0.89-0.42-1.27c-0.68-1.28-1.47-2.5-2.1-3.8c-1.46-3.02-3.17-5.91-4.97-8.74c-1.13-1.77-2.29-3.53-3.42-5.3
			c-1.99-3.1-3.9-6.26-5.38-9.63c-1.41-3.18-2.67-6.43-3.9-9.69c-0.63-1.65-1.11-3.37-1.56-5.08c-1.9-7.13-2.99-14.41-3.62-21.75
			c-0.6-7.01-0.98-14.03-1.16-21.07c-0.04-1.7-0.24-3.42-0.59-5.08c-0.6-2.83-1.38-5.61-2.07-8.42c-0.83-3.39-2.63-6.32-4.64-9.08
			c-1.97-2.7-4.24-5.18-6.69-7.49c-2.54-2.39-4.91-4.95-7.4-7.38c-1.69-1.65-3.48-3.21-5.23-4.79c-0.06-0.05-0.23,0.01-0.37,0.02
			c0.11,0.7,0.65,1.11,1.07,1.58c2.11,2.36,4.45,4.46,6.78,6.6c2.85,2.63,5.62,5.34,8.35,8.1c1.96,1.98,3.41,4.33,4.52,6.89
			c2.28,5.3,3.62,10.82,4.08,16.58c0.35,4.34,0.31,8.67,0.26,13.01c-0.07,6.31-0.01,12.63,0.55,18.92c0.13,1.5,0.31,3.01,0.6,4.49
			c1.81,9.38,5.22,18.2,9.67,26.59c4.73,8.9,10.47,17.17,16.81,25.02c0.23,0.29,0.57,0.5,0.87,0.74
			C86.42,216.92,86.81,217.24,87.16,217.58z M76.23,180.75c1.66,2.37,3.33,4.74,4.99,7.1c0.18,0.25,0.32,0.6,0.86,0.4
			c-0.07-1.6-0.1-3.24-0.21-4.88c-0.41-5.86,0.44-11.55,2.25-17.11c0.45-1.38,0.94-2.74,1.39-4.11c0.14-0.43,0.3-0.83,0.13-1.33
			c-0.73-2.08-0.62-4.29-0.78-6.43c-0.09-1.2-0.22-2.33-0.73-3.41c-0.44-0.95-0.82-1.94-1.32-2.86c-1.52-2.77-3.09-5.5-4.64-8.25
			c-0.16-0.28-0.3-0.61-0.8-0.36c-0.17,3.11-0.28,6.27-0.53,9.41c-0.47,5.92-0.42,11.83,0.4,17.72c0.09,0.62,0.22,1.27-0.06,2
			c-0.44-0.56-0.5-1.16-0.63-1.71c-1.72-7.27-2.32-14.67-2.39-22.12c-0.02-2.79,0.32-5.51,2.05-7.89c-2.44-3.24-4.85-6.42-7.28-9.64
			c-0.06,0.17-0.14,0.28-0.13,0.38c0.36,3.75,0.27,7.49-0.03,11.23c-0.32,3.93-0.8,7.86-0.98,11.8c-0.24,5.15,0.27,10.23,1.57,15.25
			c2.29,8.81,6.15,16.91,10.83,24.65c0.44,0.73,0.96,1.41,1.47,2.1c0.14,0.19,0.36,0.33,0.7,0.64c0-0.85,0-1.48,0-1.84
			c-0.83-1.11-1.58-1.95-2.14-2.91c-1.3-2.21-2.5-4.48-3.74-6.72c-0.19-0.34-0.4-0.69-0.21-1.11L76.23,180.75z M74.56,86.47
			c0.04,0.04,0.08,0.08,0.12,0.12c-0.05-0.03-0.1-0.06-0.16-0.09c-0.16-0.42-0.27-0.87-0.48-1.26c-2.18-4.11-5.04-7.69-8.48-10.8
			c-3.46-3.13-6.95-6.23-10.46-9.3c-2.47-2.16-5.01-4.25-7.51-6.38c-0.33-0.28-0.62-0.6-0.95-0.92c0.5-0.28,0.72,0.06,0.96,0.23
			c6.46,4.74,12.94,9.46,19.37,14.25c1.79,1.33,3.46,2.83,5.11,4.33c2.86,2.6,5.01,5.73,6.53,9.28c0.62,1.44,1.11,2.94,1.71,4.52
			c0.74,0.41,1.48,1.11,2.53,1.15l0.04,0.08l-0.08-0.04c0.12-0.71-0.31-1.26-0.6-1.84c-0.6-1.21-1.27-2.39-2.01-3.78
			c0.68,0.18,0.93,0.55,1.19,0.9c1.15,1.53,2.03,3.22,2.8,4.97c0.42,0.96,1.03,1.64,2.14,1.95c0.08-0.35,0.2-0.65,0.21-0.96
			c0.04-0.98,0.05-1.97,0.03-2.96c-0.02-0.85-0.24-1.73-0.11-2.55c0.17-1.08-0.2-1.92-0.69-2.79c-1.76-3.15-3.49-6.33-5.27-9.48
			c-0.71-1.26-1.43-2.52-2.28-3.69c-1.82-2.5-3.67-4.97-5.61-7.38c-2.77-3.44-5.86-6.63-9.37-9.28c-4.66-3.53-9.47-6.87-13.98-10.61
			c-1.98-1.64-3.94-3.27-5.77-5.08c-1.92-1.89-3.86-3.76-5.82-5.62c-0.57-0.54-1.2-1.03-1.85-1.47c-0.27-0.18-0.67-0.17-1.05-0.26
			c0,1.07-0.02,1.98,0,2.9c0.07,2.3,0.15,4.6,0.26,6.9c0.12,2.43,0.21,4.86,0.46,7.28c0.45,4.3,1.62,8.38,3.93,12.08
			c0.97,1.56,1.84,3.2,2.88,4.71c1.41,2.06,2.81,4.15,4.45,6.02c3.91,4.48,8.3,8.42,13.48,11.42c0.51,0.3,0.98,0.66,1.49,0.97
			c0.26,0.16,0.55,0.28,0.9,0.45c0.15-0.89,0.28-1.65,0.41-2.45c-0.57-0.42-1.11-0.79-1.62-1.2c-1.47-1.21-2.94-2.42-4.39-3.65
			c-1-0.85-1.93-1.79-2.95-2.6c-2.43-1.93-4.7-4.01-6.44-6.61c-0.99-1.47-2.03-2.91-3.08-4.34c-0.98-1.33-1.76-2.77-2.46-4.26
			c-2.66-5.7-3.25-11.73-2.98-17.91c0.04-0.83,0.27-1.64,0.48-2.87c0.21,2.59,0.35,4.75,0.58,6.9c0.57,5.37,2.49,10.32,4.81,15.14
			c0.17,0.35,0.39,0.69,0.59,1.03c1.29,2.21,2.58,4.43,3.88,6.64c0.3,0.51,0.61,1.02,0.9,1.53c1.18,2.07,2.87,3.51,5.03,4.54
			c2.55,1.21,4.97,2.71,7.19,4.47c2.06,1.63,4.03,3.37,6.31,4.7c1.59,0.93,3.17,1.87,4.77,2.77C73.9,86.43,74.25,86.41,74.56,86.47z
			 M95.84,127.57c0.57,0.12,0.59,0.67,0.75,1.06c0.94,2.31,1.84,4.65,2.76,6.97c0.24,0.59,0.51,1.17,0.74,1.72
			c0.55-0.07,0.68-0.33,0.58-0.7c-0.28-1.01-0.66-1.99-0.85-3.02c-0.34-1.81-0.51-3.65-0.85-5.45c-1.01-5.3-2.3-10.54-4.28-15.57
			c-2.12-5.38-5.03-10.26-9.29-14.26c-1.4-1.31-2.88-2.51-4.59-3.38c-1.88-0.96-3.63-2.12-5.35-3.34c-1.23-0.87-2.55-1.62-3.84-2.41
			c-1.4-0.86-2.8-1.72-4.2-2.57c-0.26-0.16-0.49-0.47-0.99-0.18c-0.01,0.64-0.04,1.34-0.04,2.05c0,3.09,0.05,6.18,0,9.27
			c-0.1,5.42,0.36,10.76,1.54,16.06c0.91,4.09,2.35,7.94,4.77,11.38c1.55,2.2,3.12,4.41,4.81,6.5c2.07,2.57,3.9,5.29,5.36,8.25
			c0.55,1.12,1.12,2.24,1.75,3.31c1.65,2.81,2.85,5.77,3.37,9c0.09,0.58,0.23,1.12,0.8,1.66c0.25-0.45,0.46-0.82,0.66-1.18
			c-0.84-1.15-1.22-2.4-1.58-3.67c-0.66-2.27-1.41-4.51-2.11-6.77c-0.09-0.3-0.09-0.64-0.12-0.96l-0.03,0.03
			c0.3,0.33,0.65,0.63,0.88,1c1.42,2.23,2.52,4.61,3.49,7.06c0.14,0.35,0.29,0.7,0.44,1.05c0.51-0.15,0.57-0.49,0.41-0.8
			c-1.02-1.95-1.37-4.11-2-6.17c-0.06-0.19,0.04-0.42,0.08-0.76c0.3,0.24,0.51,0.33,0.58,0.49c0.8,1.63,1.57,3.27,2.36,4.91
			c0.11-0.04,0.27-0.05,0.33-0.14c0.71-1.02,1.41-2.04,2.16-3.12c-1.57-2.25-2.37-4.74-3.16-7.25c-2.44-7.77-4.89-15.55-7.34-23.32
			c-0.51-1.63-1.01-3.26-1.5-4.9c-0.07-0.22-0.19-0.52,0.33-0.65c0.1,0.18,0.24,0.38,0.34,0.59c0.49,1.08,1,2.15,1.46,3.23
			c2.77,6.47,5.16,13.08,7.49,19.72c1.2,3.41,2.48,6.79,3.3,10.33c0.03,0.14,0.25,0.24,0.46,0.43c0.61-0.75,1.18-1.45,1.69-2.09
			c-2.47-6.9-3.27-9.56-3.24-10.85c1.06,1.43,1.52,3.03,2.3,4.45c0.81,1.47,1.33,3.09,2.36,4.47c0.04-0.34-0.03-0.63-0.12-0.92
			c-0.88-2.82-1.76-5.65-2.63-8.47c-0.21-0.69-0.42-1.39-0.19-2.12L95.84,127.57z M120,40.65c0.26,1.15,0.61,2.28,0.77,3.44
			c0.47,3.45,0.88,6.9,1.27,10.36c0.71,6.2,1.13,12.43,1.27,18.67c0.09,4.27-0.15,8.54-0.82,12.77c-0.35,2.2-0.85,4.41-0.92,6.63
			c-0.12,3.8,0.02,7.62,0.08,11.43c0.01,0.72,0.13,1.44,0.18,2.16c0.06,0.76,0.1,1.52,0.16,2.64c0.4-0.51,0.61-0.74,0.77-0.99
			c2.27-3.62,4.42-7.31,6.21-11.19c1.43-3.11,2.99-6.14,4.8-9.04c0.63-1,1.27-2,1.92-2.98c0.31-0.46,0.4-0.92,0.31-1.48
			c-0.18-1.1-0.32-2.21-0.41-3.32c-0.24-3.14-0.43-6.29-0.68-9.43c-0.08-1.04-0.27-2.08-0.4-3.12l-0.04,0.03
			c0.15,0.09,0.39,0.15,0.44,0.28c0.29,0.8,0.62,1.6,0.78,2.44c0.47,2.38,0.89,4.78,1.27,7.18c0.22,1.4,0.34,2.82,0.51,4.29
			c0.92-0.74,0.98-0.74,0.97-1.61c-0.03-2.17-0.06-4.34-0.2-6.5c-0.12-1.9-0.44-3.79-0.56-5.69c-0.19-2.9-0.6-5.75-1.55-8.51
			c-1.35-3.92-2.87-7.76-4.86-11.42c-0.82-1.5-1.58-3.03-2.28-4.59c-2.12-4.67-4.2-9.35-6.28-14.04c-0.69-1.56-1.32-3.15-2.01-4.71
			c-0.62-1.38-1.29-2.73-1.96-4.08c-0.14-0.28-0.37-0.51-0.73-0.99c-0.12,0.69-0.24,1.1-0.25,1.53c-0.06,2.3-0.05,4.6-0.14,6.9
			c-0.19,5.47-0.82,10.88-2.27,16.17c-1.83,6.67-4.16,13.16-6.72,19.57c-2.14,5.38-3.97,10.86-5.52,16.44
			c-0.97,3.51-1.51,7.07-1.36,10.72c0.06,1.45,0.04,2.89,0.09,4.34c0.1,3.43,0.61,6.81,1.64,10.09c0.39,1.25,0.81,2.5,1.2,3.76
			c1.79,5.79,3.29,11.64,3.58,17.73c0.01,0.3,0.15,0.6,0.25,0.96c1-0.53,1.26-1.21,1.02-2.19c-0.19-0.76-0.26-1.55-0.33-2.34
			c-0.36-4.32-0.71-8.65-1.04-12.97c-0.05-0.62-0.01-1.25-0.01-1.87c0.68,1.19,0.87,2.48,1.14,3.74c0.29,1.35,0.54,2.71,0.78,4.07
			c0.23,1.29,0.42,2.59,0.67,3.88c0.25,1.3,0.21,2.67,0.72,3.95c0.84-0.37,0.96-0.97,0.91-1.67c-0.26-3.21-0.51-6.42-0.77-9.63
			c-0.04-0.51-0.14-1.02-0.23-1.68c0.27,0.21,0.48,0.29,0.54,0.43c1.24,3.15,1.36,6.48,1.45,9.96c0.3-0.21,0.49-0.29,0.59-0.43
			c1.74-2.47,3.46-4.96,5.2-7.43c0.37-0.53,0.45-1.06,0.37-1.67c-0.31-2.48-0.61-4.96-0.9-7.44c-0.52-4.46-0.46-8.92-0.26-13.39
			c0.02-0.52,0.15-1.04,0.21-1.56c0.33-2.74,0.79-5.47,0.97-8.22c0.39-5.97,0.65-11.95,0.93-17.92c0.31-6.71,0.07-13.41-0.46-20.1
			c-0.06-0.78,0.03-1.57,0.06-2.35L120,40.65z M105.23,125.77c-0.22-1.21-0.35-2.18-0.56-3.12c-1.04-4.69-2.22-9.33-3.83-13.86
			c-1.03-2.91-1.95-5.86-2.34-8.95c-0.49-3.86-0.57-7.73-0.58-11.61c0-0.72,0-1.46-0.15-2.15c-0.9-4.01-1-8.08-0.89-12.16
			c0.13-4.53,0.33-9.07,0.48-13.6c0.15-4.6,0.29-9.2,0.44-13.8c0.02-0.54,0.11-1.08,0.17-1.62c0.59,1.6,0.56,3.23,0.67,4.84
			c0.11,1.64,0.22,3.28,0.35,4.92c0.12,1.57,0.26,3.14,0.39,4.72c0.14,1.64,0.28,3.28,0.4,4.91c0.13,1.64,0.21,3.28,0.37,4.92
			c0.15,1.59-0.1,3.23,0.51,5.04c0.77-1.62,1.1-3.01,1.01-4.59c-0.22-3.74-0.27-7.49-0.37-11.23c0-0.18-0.11-0.54,0.45-0.51
			c0.45,2.86,0.9,5.73,1.38,8.8c0.72-0.81,0.81-1.57,0.76-2.36c-0.15-2.49-0.31-4.98-0.46-7.48c-0.04-0.63-0.29-1.26,0.09-2.09
			c1.27,2.34,0.95,4.83,1.48,7.15c0.53-0.19,0.6-0.61,0.73-0.96c0.92-2.46,1.73-4.97,2.78-7.38c0.82-1.87,0.9-3.53,0.09-5.45
			c-0.72-1.71-1.41-3.38-2.54-4.86c-0.63-0.83-1.21-1.73-1.65-2.68c-1.05-2.27-2.1-4.54-2.95-6.88c-0.84-2.3-1.9-4.47-3.1-6.59
			c-0.15-0.26-0.41-0.45-0.64-0.7c-0.95,1.54-1.39,2.8-1.84,5.07c-0.91,4.57-1.69,9.18-2.8,13.71c-0.99,4.01-2.28,7.96-3.59,11.88
			c-2.18,6.5-2.34,13.16-1.83,19.89c0.07,0.97,0.35,1.94,0.59,2.89c0.37,1.46,0.86,2.9,1.19,4.37c1.05,4.69,2.48,9.26,4,13.81
			c0.67,1.99,1.43,3.96,1.63,6.08c0.04,0.43,0.3,0.86,0.52,1.26c2.72,4.78,4.52,9.92,5.8,15.25c0.46,1.9,1.56,3.28,2.8,4.63
			C104.38,125.48,104.72,125.54,105.23,125.77z M159.08,39.56c0.11,0.02,0.22,0.05,0.33,0.07c-0.18,1.03-0.32,2.06-0.54,3.08
			c-1.49,7.01-3,14.01-4.49,21.01c-0.06,0.28-0.24,0.62,0.2,0.88c0.95-0.53,1.9-1.11,2.89-1.61c0.69-0.35,1.4-0.37,2.02,0.2
			c0.54,0.51,0.6,1.17,0.38,1.82c-0.23,0.68-0.54,1.34-0.87,1.98c-1.41,2.83-2.63,5.73-3.55,8.76c-0.07,0.25-0.39,0.53,0.05,0.88
			c0.89-1.33,1.6-2.73,2.23-4.17c1.19-2.7,1.9-5.61,3.34-8.21c0.19-0.34,0.24-0.75,0.34-1.13c1.88-6.92,3.1-13.99,4.31-21.05
			c0.54-3.11,1.14-6.2,1.97-9.25c1.23-4.5,2.58-8.97,4.19-13.35c0.12-0.32,0.11-0.69,0.19-1.24c-1.55,0.85-2.74,1.78-3.81,2.83
			c-2.17,2.11-4.29,4.27-6.39,6.44c-1.79,1.84-3.49,3.76-5.29,5.58c-1.81,1.84-3.42,3.82-4.76,6.02c-1.26,2.08-2.52,4.17-3.71,6.29
			c-1.68,3-2.89,6.21-3.56,9.58c-0.88,4.45-1.71,8.91-2.17,13.43c-0.28,2.67-0.54,5.37-1.51,7.92c-0.1,0.25-0.19,0.62,0.27,0.89
			c3.14-3.71,6.65-7.06,10.41-10.26c-0.3-2.34,0.19-4.59,0.88-6.79c2.02-6.46,4.09-12.91,6.15-19.35
			C158.7,40.37,158.91,39.97,159.08,39.56z M149.52,113.34c-0.23,0.38-0.35,0.52-0.4,0.68c-0.74,2.31-1.48,4.62-2.22,6.93
			c-0.16,0.51-0.23,1-0.11,1.54c0.37,1.6,0.7,3.2,1.03,4.81c0.47,2.25,0.95,4.49,1.42,6.74c0.29,1.37,0.56,2.75,0.91,4.5
			C151.06,129.92,150.25,121.76,149.52,113.34z"/>
            <path class="st0" d="M152.12,219.17c-0.34-0.11-0.57-0.19-0.91-0.3c-0.14,0.64-0.27,1.28-0.43,1.91c-0.08,0.31-0.21,0.62-0.38,0.9
			c-0.28,0.47-1.07,0.52-1.33,0.04c-0.31-0.56-0.59-1.2-0.64-1.82c-0.08-1.04-0.06-2.11,0.07-3.15c0.35-2.87,0.79-5.73,1.17-8.6
			c0.62-4.69,1.21-9.39,1.85-14.08c0.34-2.47,0.78-4.93,1.14-7.4c0.53-3.64,1-7.29,1.53-10.93c0.58-4.03,1.24-8.06,1.77-12.09
			c0.41-3.06,0.73-6.14,1-9.21c0.34-3.93,0.48-7.88,0.91-11.8c0.44-4.05,1.03-8.08,1.71-12.1c1.38-8.23,2.75-16.47,3.67-24.77
			c0.6-5.36,1.04-10.73,0.9-16.14c-0.01-0.52,0-1.03,0.25-1.57c0.06,0.33,0.13,0.67,0.17,1c0.85,8.15,0.36,16.29-0.25,24.42
			c-0.39,5.24-0.87,10.48-1.36,15.72c-0.43,4.58-0.95,9.15-1.37,13.74c-0.34,3.6-0.61,7.21-0.88,10.81
			c-0.43,5.77-1.27,11.5-2.2,17.21c-0.77,4.73-1.5,9.48-2.26,14.21c-0.4,2.53-0.86,5.05-1.22,7.59c-0.53,3.71-0.99,7.43-1.47,11.14
			c-0.09,0.72-0.22,1.43-0.29,2.15c-0.16,1.76-0.44,3.49-0.43,5.29c0.02,2.29-0.3,4.59-0.49,6.88
			C152.32,218.52,152.21,218.82,152.12,219.17z"/>
            <path class="st0" d="M101.12,166.38c0.09,0.83-0.12,1.31-0.27,1.79c-1.93,6.19-2.76,12.56-2.97,19.02
			c-0.19,5.98-0.1,11.96,0.25,17.93c0.21,3.54,0.35,7.09,0.51,10.63c0.12,2.56,0.34,5.11,0.97,7.61c0.11,0.44,0.18,0.9,0.19,1.36
			c0.02,0.65-0.31,1.13-0.9,1.4c-0.54,0.25-1.07,0.14-1.47-0.23c-0.43-0.39-0.82-0.85-1.11-1.35c-0.71-1.2-1.09-2.54-1.27-3.91
			c-0.2-1.5-0.37-3-0.41-4.51c-0.16-7.49,0.08-14.98,0.49-22.46c0.34-6.1,1.14-12.16,2.62-18.11c0.7-2.81,1.61-5.55,2.76-8.2
			C100.65,167.08,100.83,166.85,101.12,166.38z"/>
            <path class="st0" d="M135.74,168.21c0.14,0.42,0.32,0.83,0.43,1.26c1.1,4.35,1.57,8.79,1.94,13.24c0.53,6.43,0.49,12.86,0.43,19.3
			c-0.04,4.49-0.75,8.89-1.67,13.27c-0.5,2.38-0.96,4.76-1.53,7.13c-0.26,1.08-0.67,2.12-1.1,3.15c-0.25,0.62-0.7,1.15-1.49,1.05
			c-0.71-0.09-1.2-0.83-1.18-1.81c0.01-0.52,0.1-1.05,0.18-1.56c0.85-5.32,1.69-10.64,2.56-15.95c0.64-3.89,1.19-7.79,1.41-11.73
			c0.27-4.79,0.55-9.58,0.65-14.37c0.08-4.14-0.26-8.27-0.91-12.37c-0.03-0.19,0-0.38,0-0.57
			C135.55,168.23,135.64,168.22,135.74,168.21z"/>
            <path class="st0" d="M134.14,110.57c-0.14,0.63-0.21,1.29-0.43,1.89c-3.12,8.39-6.82,16.51-11.19,24.34
			c-3.85,6.9-8.12,13.52-12.71,19.95c-0.34,0.48-0.69,0.96-1,1.47c-0.57,0.94-0.57,1.08-0.3,2.38c-0.74-0.01-1.11-0.45-1.18-1.07
			c-0.06-0.57,0-1.18,0.12-1.75c0.32-1.42,0.84-2.77,1.59-4.02c1.43-2.36,2.89-4.71,4.38-7.02c2.96-4.58,6.02-9.1,8.92-13.72
			c4.1-6.52,7.45-13.45,10.65-20.44c0.31-0.69,0.43-1.52,1.18-1.95L134.14,110.57z"/>
            <path class="st0" d="M93.35,159.23c-0.27,0.72-0.54,1.44-0.81,2.16c-1.23,3.33-2.51,6.64-3.11,10.16
			c-0.42,2.46-0.69,4.94-1.01,7.42c-0.19,1.43-0.36,2.86-0.73,4.32c-0.1-0.59-0.24-1.18-0.3-1.78c-0.07-0.65-0.14-1.31-0.09-1.96
			c0.16-2.16,0.38-4.32,0.56-6.48c0.15-1.85,0.61-3.62,1.25-5.36c0.98-2.65,2.12-5.23,3.46-7.73c0.15-0.28,0.33-0.56,0.49-0.83
			C93.15,159.17,93.25,159.2,93.35,159.23z"/>
            <path class="st0" d="M122.48,211.52c0.22,0.52,0.47,0.9,0.55,1.31c0.19,0.97,0.35,1.95,0.43,2.93c0.13,1.7,0.25,3.41,0.27,5.12
			c0.01,1.05-0.11,2.1-0.29,3.14c-0.17,0.98-0.73,1.5-1.34,1.48c-0.61-0.02-1.01-0.59-1.01-1.67c0-0.92,0.05-1.84,0.17-2.75
			c0.4-3,0.98-5.97,1.01-9.01C122.27,211.94,122.36,211.83,122.48,211.52z"/>
            <path class="st0" d="M193.93,141.7c0.29-0.77,0.74-1.31,1.21-1.82c3.23-3.46,6.46-6.9,9.7-10.35c0.12-0.13,0.3-0.2,0.5-0.33
			C203.8,133.43,197.04,140.35,193.93,141.7z"/>
            <path class="st0" d="M163.87,182.16c0.39-1.38,0.72-2.78,1.19-4.13c1.13-3.3,2.51-6.5,4.11-9.6c0.45-0.87,1.02-1.68,1.58-2.49
			c0.17-0.25,0.45-0.57,0.78-0.29c0.12,0.1,0.1,0.5,0.01,0.7c-0.66,1.43-1.32,2.87-2.05,4.26c-1.9,3.61-3.8,7.21-5.09,11.1
			c-0.06,0.18-0.2,0.34-0.31,0.5C164.01,182.19,163.94,182.17,163.87,182.16z"/>
            <path class="st0" d="M168.2,66.93c-0.22-1.61-0.26-3.17,0.19-4.7c0.98-3.36,2.71-6.35,4.41-9.3c0.19,0.03,0.26,0.02,0.28,0.05
			c0.04,0.05,0.08,0.13,0.07,0.17C171.44,57.72,170.11,62.43,168.2,66.93z"/>
            <path class="st0" d="M108.13,215.61c-0.2-1.68-0.41-3.37-0.6-5.05c-0.02-0.21,0.06-0.44,0.16-1.02c0.98,1.96,1.53,3.67,1.87,5.43
			c0.54,2.76,1,5.52,1.49,8.29c0.03,0.18,0.02,0.38,0.03,0.55c-0.36,0.21-0.5-0.03-0.58-0.26c-0.3-0.86-0.57-1.74-0.87-2.6
			c-0.08-0.23-0.25-0.43-0.37-0.65l0.03,0.06c-0.08-0.56,0.09-1.19-0.42-1.64l0.03,0.06c-0.12-0.55,0.11-1.19-0.42-1.64
			c0,0,0.03,0.06,0.03,0.06c-0.09-0.56,0.11-1.2-0.42-1.65L108.13,215.61z"/>
            <path class="st0" d="M137.35,223.95c-0.17-0.32-0.36-0.53-0.37-0.74c-0.03-0.91-0.15-1.85,0.04-2.73c0.6-2.8,1.32-5.58,2.01-8.37
			c0.06-0.24,0.22-0.45,0.42-0.84c0.12,0.27,0.25,0.41,0.23,0.52c-0.64,3.86-0.94,7.78-1.97,11.57
			C137.67,223.52,137.54,223.66,137.35,223.95z"/>
            <path class="st0" d="M36.17,127.54c1.36,4.14,0.21,8.24-0.1,12.35C35.32,135.77,35.42,131.65,36.17,127.54z"/>
            <path class="st0" d="M146.49,88.13c-0.26,5.13-1.04,10.15-2.12,15.18c-0.56-0.14-0.44-0.52-0.41-0.77
			c0.28-2.34,0.54-4.69,0.9-7.02c0.3-1.94,0.72-3.86,1.12-5.79C146.1,89.19,146.32,88.66,146.49,88.13z"/>
            <path class="st0" d="M48.16,114.26c1.38,1.74,2.21,3.65,2.57,5.74c0.5,2.9,1.05,5.8,1.1,8.78c-0.58,0.01-0.48-0.47-0.54-0.77
			c-0.56-2.76-1.06-5.53-1.65-8.29c-0.29-1.34-0.72-2.65-1.08-3.98C48.42,115.25,48.29,114.75,48.16,114.26z"/>
            <path class="st0" d="M120.56,212.43c0.67,2.88,0.32,5.44,0.14,7.98c-0.09,1.23-0.42,2.45-0.66,3.67c-0.01,0.07-0.2,0.11-0.42,0.22
			c-0.06-0.47-0.19-0.9-0.16-1.32c0.17-3.02,0.35-6.04,0.57-9.06C120.06,213.51,120.31,213.12,120.56,212.43z"/>
            <path class="st0" d="M103.77,184.84c0.13,1.34-0.29,2.6-0.52,3.89c-0.82,4.45-1.7,8.89-2.52,13.34c-0.15,0.83-0.16,1.69-0.24,2.61
			c-0.44-0.53-0.21-1.08-0.24-1.58c-0.04-0.59-0.01-1.19,0.09-1.77c0.53-3.1,1.06-6.21,1.65-9.3c0.41-2.12,0.9-4.23,1.38-6.34
			c0.07-0.29,0.29-0.55,0.45-0.82L103.77,184.84z"/>
            <path class="st0" d="M178.66,129.41c0.42-1.85,0.88-3.69,1.25-5.55c0.64-3.15,0.88-6.34,1.1-9.58c0.07,0.49,0.16,0.98,0.21,1.48
			c0.06,0.59,0.11,1.17,0.13,1.76c0.09,3.83-0.3,7.58-1.98,11.1c-0.15,0.32-0.17,0.81-0.73,0.76L178.66,129.41z"/>
            <path class="st0" d="M176.2,72.66c0.7,6.79,2.24,13.44,2.88,20.22C177.87,89.68,175.83,75.51,176.2,72.66z"/>
            <path class="st0" d="M146.44,158.52c1.44,3.53,1.61,10.33,0.51,15.99c-0.11-0.58-0.2-0.84-0.2-1.11
			c-0.01-0.72-0.01-1.44,0.02-2.16c0.15-3.93,0.17-7.85-0.31-11.76C146.4,159.17,146.44,158.84,146.44,158.52z"/>
            <path class="st0" d="M187.08,174.95c0.13-0.36,0.2-0.76,0.41-1.07c2.24-3.23,4.51-6.45,6.78-9.67c0.09-0.13,0.27-0.21,0.64-0.47
			c-0.48,1.35-1.02,2.39-1.7,3.33c-1.8,2.5-3.67,4.95-5.53,7.41c-0.15,0.19-0.41,0.29-0.62,0.43
			C187.05,174.91,187.08,174.95,187.08,174.95z"/>
            <path class="st0" d="M45.7,182.02c-0.23-0.73-0.46-1.46-0.7-2.25c0.43-0.05,0.53,0.31,0.68,0.51c2.01,2.68,4.01,5.38,6.02,8.07
			c0.27,0.37,0.59,0.71,0.88,1.06l-0.01-0.04c-0.24-0.02-0.56,0.05-0.71-0.08c-0.5-0.42-0.99-0.88-1.39-1.39
			c-1.36-1.69-2.67-3.41-4.02-5.12c-0.23-0.3-0.52-0.55-0.79-0.82C45.66,181.97,45.7,182.02,45.7,182.02z"/>
            <path class="st0" d="M153.76,142.43c0.38,3.64-0.25,8.62-1.27,10.69C152.21,151.42,152.94,144.84,153.76,142.43z"/>
            <path class="st0" d="M141.74,84.99c-0.09,0.31-0.13,0.65-0.28,0.93c-1.51,3.07-3.29,5.98-5.48,8.63c-0.17,0.2-0.27,0.45-0.7,0.48
			c0.01-0.14-0.02-0.31,0.05-0.42c2.02-3.22,4.05-6.44,6.09-9.66c0.03-0.05,0.11-0.07,0.17-0.1
			C141.64,84.9,141.69,84.94,141.74,84.99z"/>
            <path class="st0" d="M156.14,91.04c0.06,0.53,0.12,0.72,0.1,0.91c-0.13,1.1-0.29,2.2-0.42,3.3c-0.27,2.19-0.53,4.37-0.82,6.87
			C154.23,99.66,154.77,94.64,156.14,91.04z"/>
            <path class="st0" d="M139.27,175.33c0.66,1.55,0.56,3.22,0.74,4.83c0.2,1.83,0.08,3.67-0.29,5.48c-0.03,0.17-0.16,0.32-0.36,0.73
			c-0.05-0.77-0.1-1.28-0.1-1.8c-0.05-2.69-0.09-5.38-0.11-8.07c0-0.38,0.11-0.76,0.17-1.15L139.27,175.33z"/>
            <path class="st0" d="M29.23,96.68c1.39,2.41,2.13,5.04,2.6,7.75c0.12,0.69,0.29,1.4-0.05,2.4c-0.19-0.54-0.3-0.81-0.38-1.1
			c-0.67-2.45-1.32-4.91-2.01-7.36c-0.16-0.57-0.36-1.12-0.11-1.71L29.23,96.68z"/>
            <path class="st0" d="M138.52,125.6c0.1-0.37,0.14-0.76,0.31-1.09c1.46-2.74,2.95-5.48,4.44-8.21c0.06-0.1,0.18-0.17,0.28-0.26
			l0.11,0.09c-0.1,0.37-0.13,0.77-0.3,1.1c-1.35,2.51-2.72,5.01-4.11,7.49c-0.18,0.32-0.51,0.56-0.77,0.83L138.52,125.6z"/>
            <path class="st0" d="M140.36,213.54c0.04,2.16-0.8,7.31-1.35,8.67C138.8,220.13,139.47,215.53,140.36,213.54z"/>
            <path class="st0" d="M154.5,115.32c0.38,3.85,0.2,7.68,0.08,11.51C154.27,125.6,154.19,116.91,154.5,115.32z"/>
            <path class="st0" d="M36.82,149.02c0.06,2.62,0.8,5.19,0.5,7.82C36.62,154.27,36.49,151.66,36.82,149.02z"/>
            <path class="st0" d="M190.23,144.59c-1.29,1.27-2.57,2.55-3.87,3.81c-0.26,0.25-0.56,0.58-1.01,0.3l-0.02,0.03
			c1.03-1.81,2.73-2.89,4.38-4.01c0.14-0.09,0.37-0.06,0.56-0.08L190.23,144.59z"/>
            <path class="st0" d="M164,76.48c0.45-1.83,0.92-2.72,2.53-4.95c0.31,0.21,0.09,0.47,0.01,0.65c-0.49,1.06-1,2.12-1.55,3.15
			C164.79,75.71,164.43,75.99,164,76.48z"/>
            <path class="st0" d="M47.56,119.8c0.43-0.02,0.5,0.32,0.61,0.62c0.64,1.64,0.76,3.38,0.84,5.16c-0.09-0.24-0.19-0.47-0.26-0.71
			c-0.09-0.31-0.16-0.63-0.23-0.94c-0.31-1.39-0.62-2.77-0.93-4.16C47.59,119.76,47.56,119.8,47.56,119.8z"/>
            <path class="st0" d="M178,178.5c-0.01,0.19,0.04,0.42-0.04,0.57c-0.75,1.42-1.51,2.84-2.29,4.25c-0.08,0.14-0.3,0.2-0.45,0.3
			l-0.02-0.02c0-0.06-0.03-0.14-0.01-0.19c0.74-1.75,1.64-3.41,2.76-4.96L178,178.5z"/>
            <path class="st0" d="M176.78,158.74c-0.07-0.58,0.31-0.98,0.61-1.38c0.73-0.97,1.4-2.01,2.56-2.56l-0.01-0.01
			c-0.64,1.31-1.98,3-3.14,3.97L176.78,158.74z"/>
            <path class="st0" d="M160.88,163.75c0.05-1.41,0.1-2.82,0.16-4.22c0.02-0.51,0.01-1.04,0.5-1.39l-0.01-0.03
			c-0.06,1.47-0.14,2.94-0.19,4.41c-0.02,0.46-0.07,0.9-0.47,1.2L160.88,163.75z"/>
            <path class="st0" d="M175.99,138.61c0.11,1.34-0.48,2.51-0.95,3.7c-0.03,0.07-0.22,0.08-0.33,0.12l0.03,0.03
			c-0.05-1.18,0.21-2.3,0.78-3.33c0.11-0.2,0.34-0.33,0.51-0.49C176.03,138.64,175.99,138.61,175.99,138.61z"/>
            <path class="st0" d="M90,206.41c0.39,1.36,0.85,2.71,0.59,4.16c-0.38-1.35-0.86-2.69-0.55-4.13L90,206.41z"/>
            <path class="st0" d="M88.41,197.36c-0.87-1.27-0.56-2.62-0.34-3.97c0.36,1.32,0.45,2.66,0.3,4.01L88.41,197.36z"/>
            <path class="st0" d="M160.86,163.71c0.05,1.11,0.09,2.21,0.14,3.32c-0.42-1.09-0.34-2.18-0.12-3.28
			C160.88,163.75,160.86,163.71,160.86,163.71z"/>
            <path class="st0" d="M161.54,158.13c0-1.02,0-2.04,0-3.05c0.31,1.01,0.15,2.01-0.02,3.01
			C161.52,158.1,161.54,158.13,161.54,158.13z"/>
            <path class="st0" d="M143.56,116.04c0.1-0.72,0.26-1.4,0.91-1.84l-0.04-0.04c0,0.75-0.22,1.42-0.76,1.97
			C143.67,116.14,143.56,116.04,143.56,116.04z"/>
            <path class="st0" d="M177.96,178.46c0.15-0.53,0.3-1.06,0.56-2.01c-0.01,1.25,0,1.26-0.51,2.05
			C178,178.5,177.96,178.46,177.96,178.46z"/>
            <path class="st0" d="M174.72,142.44c0.02,0.31,0.04,0.62,0.07,1.02c-0.46-0.39-0.04-0.68-0.04-0.98
			C174.74,142.47,174.72,142.44,174.72,142.44z"/>
            <path class="st0" d="M178.63,129.37c0.03,0.23,0.06,0.47,0.09,0.7c-0.06,0-0.13,0-0.19-0.01c0.05-0.22,0.09-0.43,0.13-0.66
			C178.66,129.41,178.63,129.37,178.63,129.37z"/>
            <path class="st0" d="M176.49,137.55c-0.16,0.35-0.33,0.71-0.49,1.06c0,0,0.04,0.03,0.04,0.03c-0.08-0.45,0-0.83,0.45-1.05
			L176.49,137.55z"/>
            <path class="st0" d="M47.33,118.49c0.41,0.37,0.41,0.82,0.23,1.3c0,0,0.03-0.03,0.03-0.03c-0.08-0.43-0.15-0.87-0.23-1.31
			L47.33,118.49z"/>
            <path class="st0" d="M141.58,84.85c0.06-0.17,0.1-0.35,0.19-0.5c0.04-0.06,0.2-0.04,0.3-0.06c0,0.1,0.04,0.23,0,0.3
			c-0.09,0.15-0.23,0.27-0.34,0.4C141.69,84.94,141.64,84.9,141.58,84.85z"/>
            <path class="st0" d="M88.37,197.4c0.1,0.18,0.19,0.36,0.29,0.54c-0.08,0.02-0.15,0.04-0.23,0.07c-0.01-0.21-0.02-0.43-0.03-0.64
			C88.41,197.36,88.37,197.4,88.37,197.4z"/>
            <path class="st0" d="M134.18,110.61c0.02-0.16,0.04-0.33,0.06-0.49c0.07,0.04,0.14,0.08,0.21,0.13c-0.1,0.11-0.2,0.22-0.31,0.33
			L134.18,110.61z"/>
            <path class="st0" d="M144.47,114.2c0.02-0.12,0.03-0.25,0.05-0.37c-0.03,0.11-0.06,0.22-0.09,0.33
			C144.43,114.17,144.47,114.2,144.47,114.2z"/>
            <path class="st0" d="M138.49,125.56c-0.03,0.11-0.07,0.21-0.1,0.32c-0.05-0.05-0.1-0.11-0.15-0.16c0.1-0.04,0.19-0.08,0.29-0.12
			C138.52,125.6,138.49,125.56,138.49,125.56z"/>
            <path class="st0" d="M176.49,137.59c0-0.02,0-0.03,0-0.05C176.49,137.55,176.49,137.59,176.49,137.59z"/>
            <path class="st0" d="M176.8,158.75c-0.14,0.25-0.27,0.5-0.41,0.75l0.04,0.04c-0.04-0.33-0.08-0.67,0.34-0.81
			C176.78,158.74,176.8,158.75,176.8,158.75z"/>
            <path class="st0" d="M176.4,159.51c-0.07,0.11-0.15,0.22-0.22,0.33c-0.01-0.05-0.04-0.13-0.02-0.14c0.09-0.06,0.18-0.1,0.28-0.15
			C176.44,159.54,176.4,159.51,176.4,159.51z"/>
            <path class="st0" d="M175.22,183.63c-0.12,0.27-0.23,0.54-0.35,0.81l0.04,0.04c-0.11-0.36-0.13-0.69,0.29-0.87
			C175.21,183.61,175.22,183.63,175.22,183.63z"/>
            <path class="st0" d="M103.8,184.87c0.01-0.11,0.03-0.21,0.04-0.32c-0.03,0.09-0.06,0.19-0.08,0.28
			C103.77,184.84,103.8,184.87,103.8,184.87z"/>
            <path class="st0" d="M29.27,96.67l-0.13,0.03c0,0,0.08-0.01,0.08-0.01C29.23,96.68,29.27,96.67,29.27,96.67z"/>
            <path class="st0" d="M47.36,118.46c0,0-0.04,0.03-0.04,0.03C47.33,118.49,47.36,118.46,47.36,118.46z"/>
            <polygon class="st0" points="190.67,144.14 190.71,144.06 190.63,144.1 		"/>
            <path class="st0" d="M190.27,144.63c0.13-0.16,0.27-0.32,0.41-0.48c0,0-0.04-0.04-0.04-0.04c-0.13,0.16-0.27,0.32-0.4,0.48
			C190.23,144.59,190.27,144.63,190.27,144.63z"/>
            <polygon class="st0" points="185.35,148.69 185.4,148.82 185.33,148.73 		"/>
            <path class="st0" d="M196.12,150.06c0.07-0.05,0.14-0.09,0.21-0.14c-0.02,0.04-0.04,0.11-0.07,0.12
			c-0.05,0.01-0.11-0.01-0.17-0.02C196.09,150.02,196.12,150.06,196.12,150.06z"/>
            <polygon class="st0" points="181.18,153.62 181.23,153.53 181.14,153.58 		"/>
            <path class="st0" d="M181.14,153.58c-0.14,0.14-0.28,0.27-0.42,0.41l0.04,0.04c0.14-0.13,0.28-0.27,0.42-0.4
			C181.18,153.62,181.14,153.58,181.14,153.58z"/>
            <path class="st0" d="M180.36,154.41c0.13-0.13,0.27-0.26,0.4-0.39l-0.04-0.04c-0.13,0.13-0.26,0.26-0.4,0.4
			C180.33,154.38,180.36,154.41,180.36,154.41z"/>
            <path class="st0" d="M179.95,154.8c0.14-0.13,0.27-0.26,0.41-0.39c0,0-0.03-0.03-0.03-0.03c0.02,0.27-0.1,0.42-0.39,0.4
			C179.94,154.79,179.95,154.8,179.95,154.8z"/>
            <polygon class="st0" points="139.31,175.37 139.33,175.28 139.27,175.33 		"/>
            <path class="st0" d="M187.05,174.91c-0.06,0.28-0.23,0.35-0.49,0.27l0.02,0.04c0.17-0.09,0.34-0.19,0.51-0.28
			C187.08,174.95,187.05,174.91,187.05,174.91z"/>
            <path class="st0" d="M186.56,175.19l0.05,0.13c0,0-0.02-0.08-0.02-0.08C186.57,175.23,186.56,175.19,186.56,175.19z"/>
            <path class="st0" d="M174.87,184.44c-0.04,0.03-0.09,0.06-0.13,0.08c0.05-0.02,0.11-0.03,0.16-0.05
			C174.91,184.48,174.87,184.44,174.87,184.44z"/>
            <polygon class="st0" points="52.58,189.41 52.52,189.47 52.57,189.37 		"/>
            <path class="st0" d="M118.69,191.18c0.05-0.01,0.1-0.02,0.15-0.03c-0.04-0.01-0.08-0.01-0.11-0.02
			C118.72,191.13,118.69,191.18,118.69,191.18z"/>
            <polygon class="st0" points="90.04,206.45 89.93,206.45 90,206.41 		"/>
            <path class="st0" d="M106.53,78.68c-0.69,6.05-1.28,12.11-1.35,18.22c-0.46-0.83-0.55-1.72-0.62-2.62
			c-0.23-3.04,0.1-6.05,0.45-9.05c0.19-1.57,0.42-3.13,0.67-4.69c0.1-0.63,0.28-1.26,0.42-1.88
			C106.25,78.67,106.39,78.67,106.53,78.68z"/>
            <path class="st0" d="M115.86,97.64c-0.8-4.57-0.81-12.5-0.03-17.14c0.1,0.73,0.17,1.05,0.18,1.37c0.06,3.09,0.1,6.18,0.16,9.27
			C116.2,93.18,116.12,95.21,115.86,97.64z"/>
            <path class="st0" d="M123.77,37.07c0.81,0.43,1.34,1.16,1.8,1.93c0.44,0.73,0.81,1.5,1.13,2.28c0.67,1.63,1.3,3.28,1.94,4.93
			c0.08,0.22,0.14,0.45,0.3,1c-0.41-0.39-0.59-0.49-0.67-0.64c-1.6-3.07-3.2-6.14-4.79-9.22C123.57,37.25,123.67,37.16,123.77,37.07
			z"/>
            <path class="st0" d="M117.97,113.28c-0.52-0.61-0.75-1.34-0.87-2.11c-0.29-1.73-0.55-3.46-0.82-5.19l-0.01,0.04
			c0.13,0.14,0.33,0.27,0.37,0.44c0.57,2.26,1.19,4.51,1.35,6.85L117.97,113.28z"/>
            <path class="st0" d="M116.28,105.98c-0.05-0.31-0.11-0.62-0.2-1.14c0.36,0.49,0.14,0.84,0.19,1.17
			C116.27,106.02,116.28,105.98,116.28,105.98z"/>
            <path class="st0" d="M134.5,67.2c-0.06-0.1-0.13-0.19-0.18-0.3c-0.01-0.02,0.05-0.07,0.08-0.11c0.02,0.15,0.05,0.29,0.07,0.44
			C134.47,67.23,134.5,67.2,134.5,67.2z"/>
            <polygon class="st0" points="120.05,40.65 119.95,40.66 120,40.65 		"/>
            <polygon class="st0" points="118,113.3 118.04,113.36 117.97,113.28 		"/>
            <path class="st0" d="M83.06,121.37c2.01,3.52,4.95,11.24,5.35,13.85C87.2,133.7,83.53,124.36,83.06,121.37z"/>
            <path class="st0" d="M73.83,119.57c-0.2-0.12-0.49-0.18-0.6-0.35c-1.47-2.26-2.55-4.7-3.32-7.28c-0.34-1.15-0.26-2.32,0.16-3.51
			c0.11,0.54,0.2,1.07,0.33,1.6c0.69,2.79,1.54,5.53,2.79,8.13c0.22,0.47,0.4,0.96,0.61,1.44L73.83,119.57z"/>
            <path class="st0" d="M68.21,93.62c0.7,0.36,0.71,1.07,0.76,1.68c0.17,1.95,0.13,3.9,0.05,6.13c-0.67-1.79-1.01-5.63-0.78-7.85
			L68.21,93.62z"/>
            <path class="st0" d="M94.67,116.1c-0.17-0.26-0.39-0.5-0.51-0.78c-0.36-0.89-0.74-1.78-0.76-2.77
			C93.98,113.69,94.73,114.75,94.67,116.1L94.67,116.1z"/>
            <path class="st0" d="M95.41,118.93c0.8,0.99,0.83,2.14,0.52,3.35c-0.16-1.13-0.33-2.25-0.49-3.38
			C95.44,118.9,95.41,118.93,95.41,118.93z"/>
            <path class="st0" d="M94.67,116.1c0.62,0.84,0.92,1.77,0.73,2.82c0,0,0.03-0.03,0.03-0.03C94.98,118.03,94.58,117.13,94.67,116.1
			L94.67,116.1z"/>
            <path class="st0" d="M73.79,119.6c0.09,0.3,0.17,0.6,0.26,0.9l0.04-0.04c-0.28-0.24-0.37-0.53-0.26-0.89
			C73.83,119.57,73.79,119.6,73.79,119.6z"/>
            <path class="st0" d="M68.24,93.59c-0.05-0.01-0.1-0.03-0.15-0.04c0.04,0.03,0.07,0.05,0.11,0.08L68.24,93.59z"/>
            <polygon class="st0" points="74.05,120.5 74.18,120.5 74.09,120.46 		"/>
            <path class="st0" d="M95.88,127.53c-0.04-0.01-0.08-0.01-0.12-0.02c0.03,0.02,0.05,0.04,0.08,0.06L95.88,127.53z"/>
            <path class="st0" d="M85.62,141.36c-0.07-0.05-0.13-0.1-0.2-0.15c0.04,0.01,0.1,0,0.12,0.02c0.03,0.05,0.03,0.11,0.05,0.16
			L85.62,141.36z"/>
            <path class="st0" d="M56.76,52.56c0.35,0.14,0.75,0.21,1.05,0.42c3.04,2.21,5.83,4.68,8.1,7.71c1.18,1.58,2.4,3.13,3.56,4.71
			c0.3,0.41,0.47,0.91,0.7,1.37l0.03-0.03c-0.35-0.28-0.73-0.53-1.04-0.85c-3.91-4.13-7.81-8.28-11.71-12.42
			c-0.26-0.28-0.44-0.62-0.66-0.94L56.76,52.56z"/>
            <path class="st0" d="M65.87,65.55c-0.21-0.13-0.46-0.22-0.63-0.39c-1.38-1.34-2.76-2.69-4.12-4.04c-0.18-0.18-0.31-0.4-0.46-0.6
			c0.05-0.05,0.09-0.1,0.14-0.15c1.98,1.29,3.55,3,4.98,4.85c0.07,0.09,0.04,0.25,0.06,0.37C65.84,65.58,65.87,65.55,65.87,65.55z"
            />
            <path class="st0" d="M60.65,60.51c-0.83-0.39-1.42-1.04-2.12-1.93c0.73,0.11,0.98,0.57,1.33,0.84c0.34,0.27,0.62,0.63,0.93,0.94
			C60.74,60.41,60.7,60.46,60.65,60.51z"/>
            <path class="st0" d="M66.63,66.38c0.52,0.18,0.74,0.58,1.04,1.27c-0.66-0.42-1.05-0.7-1.01-1.31
			C66.66,66.34,66.63,66.38,66.63,66.38z"/>
            <path class="st0" d="M56.39,52.13c-0.05-0.02-0.1-0.05-0.15-0.07c0.04,0.04,0.07,0.07,0.11,0.11
			C56.35,52.17,56.39,52.13,56.39,52.13z"/>
            <path class="st0" d="M56.79,52.53c-0.13-0.13-0.26-0.27-0.4-0.4c0,0-0.04,0.04-0.04,0.04c0.26,0,0.43,0.1,0.4,0.4
			C56.76,52.56,56.79,52.53,56.79,52.53z"/>
            <path class="st0" d="M66.26,65.95c-0.13-0.13-0.26-0.26-0.4-0.39c0,0-0.03,0.03-0.03,0.03c0.28-0.02,0.39,0.13,0.4,0.39
			L66.26,65.95z"/>
            <path class="st0" d="M66.23,65.98c0.13,0.13,0.27,0.26,0.4,0.4c0,0,0.03-0.03,0.03-0.03c-0.3,0.04-0.4-0.12-0.4-0.39
			C66.26,65.95,66.23,65.98,66.23,65.98z"/>
            <path class="st0" d="M70.17,66.77c0.17,0.1,0.34,0.19,0.51,0.29l-0.03-0.04c-0.15-0.09-0.3-0.19-0.44-0.28
			C70.2,66.74,70.17,66.77,70.17,66.77z"/>
            <polygon class="st0" points="70.68,67.06 70.66,67.14 70.64,67.02 		"/>
            <path class="st0" d="M89.86,78.93c-0.96-2.44-0.79-10.35,0.24-14.22c0.05,0,0.12-0.03,0.15-0.01c0.05,0.04,0.09,0.11,0.09,0.17
			c0.04,0.98,0.14,1.97,0.1,2.94C90.27,71.47,90.06,75.13,89.86,78.93z"/>
            <path class="st0" d="M93,88.56c0.17,0.16,0.44,0.28,0.5,0.48c0.41,1.18,0.84,2.35,1.13,3.56c0.56,2.36,1.05,4.74,1.52,7.12
			c0.11,0.57,0.07,1.17,0.09,1.76l0.04-0.03c-0.12-0.14-0.31-0.27-0.35-0.43c-0.98-4.16-1.93-8.32-2.9-12.49L93,88.56z"/>
            <path class="st0" d="M93.04,88.53c-0.06-0.11-0.12-0.21-0.17-0.32c-0.01-0.02,0.05-0.07,0.08-0.11c0.02,0.15,0.04,0.31,0.05,0.46
			C93,88.56,93.04,88.53,93.04,88.53z"/>
            <path class="st0" d="M96.25,101.48c0.08,0.09,0.16,0.17,0.24,0.26c-0.36,0.1-0.14-0.19-0.2-0.29
			C96.28,101.45,96.25,101.48,96.25,101.48z"/>
            <path class="st0" d="M149.94,46.22c0.01,0.07,0.04,0.14,0.02,0.2c-1.47,3.93-2.8,7.92-4.75,11.66c-0.08,0.15-0.28,0.24-0.42,0.35
			l0.04,0.03c0.01-0.45-0.06-0.93,0.05-1.36c0.95-3.63,2.25-7.13,4.38-10.26C149.41,46.59,149.71,46.43,149.94,46.22L149.94,46.22z"
            />
            <path class="st0" d="M164.16,28.46c-0.64,1.4-1.55,2.59-2.7,3.61c-0.05-0.05-0.1-0.09-0.15-0.14
			C161.93,30.51,162.81,29.29,164.16,28.46L164.16,28.46z"/>
            <path class="st0" d="M150.79,45.1c-0.28,0.37-0.56,0.75-0.85,1.12c0,0,0.01,0,0.01,0c0.01-0.56,0.28-0.92,0.81-1.09L150.79,45.1z"
            />
            <path class="st0" d="M161.46,32.07c-0.14,0.26-0.29,0.52-0.5,0.91c-0.21-0.6,0.05-0.83,0.36-1.05
			C161.36,31.98,161.41,32.02,161.46,32.07z"/>
            <path class="st0" d="M144.78,58.43c0,0.23,0,0.46,0,0.83c-0.38-0.44-0.3-0.64,0.04-0.8C144.82,58.46,144.78,58.43,144.78,58.43z"
            />
            <polygon class="st0" points="164.92,27.61 164.99,27.5 164.88,27.57 		"/>
            <path class="st0" d="M164.88,27.57c-0.12,0.16-0.23,0.32-0.35,0.48c0,0,0.03,0.03,0.03,0.03c0.12-0.15,0.24-0.31,0.36-0.46
			C164.92,27.61,164.88,27.57,164.88,27.57z"/>
            <path class="st0" d="M164.16,28.46c0.14-0.13,0.27-0.25,0.41-0.38c0,0-0.03-0.03-0.03-0.03
			C164.56,28.33,164.44,28.47,164.16,28.46L164.16,28.46z"/>
            <polygon class="st0" points="150.76,45.14 150.8,45.03 150.79,45.1 		"/>
            <path class="st0" d="M79.62,147.6c0.35,3.22,0.04,9.15-0.61,11.59c-0.48-3.44-0.57-6.62-0.18-9.8
			C78.9,148.81,79.02,148.25,79.62,147.6z"/>
            <path class="st0" d="M74.15,174.02c-1.89-1.88-3.77-7.5-3.74-10.45c0.14,0.19,0.3,0.32,0.36,0.49
			C71.9,167.38,73.02,170.7,74.15,174.02z"/>
            <path class="st0" d="M70.39,144.32c-1.11-2.98-0.16-5.51-0.07-8.05C71.02,138.79,70.99,141.33,70.39,144.32z"/>
            <path class="st0" d="M69.48,149.41c0,2.39,0,4.59,0,6.79c-0.09,0.02-0.17,0.04-0.26,0.07c-0.12-0.23-0.29-0.45-0.34-0.7
			c-0.1-0.51-0.21-1.04-0.17-1.55c0.1-1.3,0.27-2.6,0.43-3.89C69.16,149.95,69.3,149.79,69.48,149.41z"/>
            <path class="st0" d="M81.36,155.45c0-0.89,0-1.78,0-2.68C81.66,153.67,81.61,154.59,81.36,155.45z"/>
            <polygon class="st0" points="81.01,150.86 81.11,150.85 81.06,150.98 		"/>
            <polygon class="st0" points="76.27,180.76 76.14,180.79 76.23,180.75 		"/>
	</g>
</g>
</svg>
